<?xml version="1.0" encoding="UTF-8"?>
<svg width="220px" height="139px" viewBox="0 0 220 139" version="1.1" xmlns="http://www.w3.org/2000/svg" xmlns:xlink="http://www.w3.org/1999/xlink">
    <!-- Generator: Sketch 51.3 (57544) - http://www.bohemiancoding.com/sketch -->
    <title>undraw_personal_trainer_ote3</title>
    <desc>Created with Sketch.</desc>
    <defs></defs>
    <g id="Page-1" stroke="none" stroke-width="1" fill="none" fill-rule="evenodd">
        <g id="iPhone-8-Copy-2" transform="translate(-78.000000, -2020.000000)" fill-rule="nonzero">
            <g id="attention" transform="translate(0.000000, 1874.000000)">
                <g id="undraw_personal_trainer_ote3" transform="translate(78.000000, 146.000000)">
                    <g id="Group" opacity="0.599999964" transform="translate(89.259991, 67.601541)">
                        <polygon id="Shape" fill="#2856FC" points="8.6449512 0.131264527 1.36979861 0.287424051 0.180465531 1.98707336 0.180465531 7.86002935 1.66550116 8.94183011 8.6449512 8.94183011 10.1299868 7.2421808 10.1299868 1.67701749"></polygon>
                        <path d="M8.49275136,1.05916894 C8.49275136,1.05916894 1.81117816,2.1409697 1.21759876,1.05916894 L1.36762432,0.287424051 L8.49275136,0.124474983 L8.49275136,1.05916894 Z" id="Shape" fill="#2856FC"></path>
                        <path d="M9.2385306,17.132284 L10.4256894,18.3702442 L10.4256894,24.2545162 L9.2385306,25.4721078 C9.2385306,25.4721078 4.93344927,27.0178608 2.11122928,25.7799005 L0.774044927,24.390307 L0.774044927,18.5060351 L1.963378,17.1141785 L9.2385306,17.132284 Z" id="Shape" fill="#004FEC"></path>
                        <path d="M8.94065376,18.5241406 C8.94065376,18.5241406 3.74411619,19.7598377 1.963378,18.5241406 L1.963378,17.132284 L9.2385306,17.132284 L8.94065376,18.5241406 Z" id="Shape" fill="#2856FC"></path>
                        <path d="M6.41631061,8.90109285 L6.41631061,17.2612853 C6.38117941,17.9504949 5.81751979,18.4805529 5.15522618,18.4471924 C4.49293257,18.4805529 3.92927296,17.9504949 3.89414175,17.2612853 L3.89414175,8.90109285 C3.89414175,8.19045385 4.5464268,7.64050075 5.30307746,7.72197528 C5.90929717,7.76073307 6.38964346,8.26950766 6.41631061,8.90109285 Z" id="Shape" fill="#2856FC"></path>
                        <polygon id="Shape" fill="#2856FC" points="20.2969365 0.371161766 13.0217839 0.525058108 11.8324508 2.22470742 11.8324508 8.09766341 13.3174865 9.17946417 20.2969365 9.17946417 21.7819721 7.47981486 21.7819721 1.91465155"></polygon>
                        <path d="M20.1469109,1.296803 C20.1469109,1.296803 13.4653377,2.37860376 12.8717583,1.296803 L13.0196096,0.525058108 L20.1469109,0.371161766 L20.1469109,1.296803 Z" id="Shape" fill="#2856FC"></path>
                        <path d="M20.8861673,17.369918 L22.0733261,18.6078783 L22.0733261,24.4921502 L20.8861673,25.7165314 C20.8861673,25.7165314 16.5789117,27.2622844 13.758866,26.0243241 L12.4216816,24.6347306 L12.4216816,18.7617746 L13.6110147,17.369918 L20.8861673,17.369918 Z" id="Shape" fill="#004FEC"></path>
                        <path d="M20.592639,18.7617746 C20.592639,18.7617746 15.3961015,19.9974717 13.6153633,18.7617746 L13.6153633,17.369918 L20.8861673,17.369918 L20.592639,18.7617746 Z" id="Shape" fill="#004FEC"></path>
                        <path d="M18.0595988,9.1387269 L18.0595988,17.4989194 C18.023308,18.1875533 17.4603751,18.7169279 16.7985143,18.6848265 C16.1358243,18.718212 15.5715383,18.1884782 15.5352556,17.4989194 L15.5352556,9.1387269 C15.5352556,8.42808791 16.1875407,7.87813481 16.9463656,7.95960934 C17.5525853,7.99836712 18.0329316,8.50714171 18.0595988,9.1387269 Z" id="Shape" fill="#2856FC"></path>
                        <polygon id="Shape" fill="#2856FC" points="35.1298985 4.84094523 29.1397475 4.96994658 28.1613199 6.36859275 28.1613199 11.2027484 29.3832672 12.0944419 35.1298985 12.0944419 36.3518459 10.6935326 36.3518459 6.11285324"></polygon>
                        <path d="M35.0059644,5.60590058 C35.0059644,5.60590058 29.5072014,6.49533091 29.0179876,5.60590058 L29.1397475,4.96994658 L35.010313,4.84094523 L35.0059644,5.60590058 Z" id="Shape" fill="#2856FC"></path>
                        <path d="M35.616938,18.8364596 L36.5953656,19.8548913 L36.5953656,24.689047 L35.616938,25.7074787 C35.616938,25.7074787 32.0728559,26.9793867 29.7463726,25.960955 L28.6461851,24.8157852 L28.6461851,19.9816295 L29.6246127,18.8364596 L35.616938,18.8364596 Z" id="Shape" fill="#2856FC"></path>
                        <path d="M35.3734183,19.9816295 C35.3734183,19.9816295 31.0944284,21.0000612 29.6289613,19.9816295 L29.6289613,18.8364596 L35.616938,18.8364596 L35.3734183,19.9816295 Z" id="Shape" fill="#2856FC"></path>
                        <path d="M33.2948033,12.0604942 L33.2948033,18.9428292 C33.26554,19.5104001 32.8008828,19.9464994 32.2554958,19.9182604 C31.7105038,19.946477 31.2464711,19.510051 31.2183625,18.9428292 L31.2183625,12.0604942 C31.2351548,11.7661325 31.3705806,11.4928367 31.5912724,11.307944 C31.8119643,11.1230514 32.0974017,11.0437538 32.3772556,11.0895894 C32.8765923,11.1214677 33.2723954,11.5402876 33.2948033,12.0604942 Z" id="Shape" fill="#2856FC"></path>
                        <polygon id="Shape" fill="#2856FC" points="44.7206631 5.03784202 38.730512 5.16458019 37.7542587 6.56322635 37.7542587 11.3996452 38.9762061 12.2890756 44.7206631 12.2890756 45.9426104 10.8904294 45.9426104 6.30975003"></polygon>
                        <path d="M44.5989032,5.80053419 C44.5989032,5.80053419 39.0979659,6.6922277 38.6087521,5.80053419 L38.730512,5.16458019 L44.6010775,5.03784202 L44.5989032,5.80053419 Z" id="Shape" fill="#2856FC"></path>
                        <path d="M45.2098769,19.0333564 L46.1861302,20.0495249 L46.1861302,24.8836806 L45.2098769,25.9021123 C45.2098769,25.9021123 41.6636205,27.1740203 39.3393114,26.1578518 L38.2412982,25.0194715 L38.2412982,20.1785263 L39.2197258,19.0333564 L45.2098769,19.0333564 Z" id="Shape" fill="#2856FC"></path>
                        <path d="M44.9641828,20.1785263 C44.9641828,20.1785263 40.6873672,21.1946948 39.2197258,20.1785263 L39.2197258,19.0333564 L45.2098769,19.0333564 L44.9641828,20.1785263 Z" id="Shape" fill="#2856FC"></path>
                        <path d="M42.8877421,12.2551278 L42.8877421,19.1351996 C42.8584789,19.7027705 42.3938216,20.1388698 41.8484346,20.1106308 C41.3030475,20.1388698 40.8383903,19.7027705 40.8091271,19.1351996 L40.8091271,12.2551278 C40.8091271,11.671227 41.3526979,11.2185907 41.9701944,11.2864861 C42.4691823,11.3172461 42.8652375,11.7353558 42.8877421,12.2551278 Z" id="Shape" fill="#2856FC"></path>
                    </g>
                    <path d="M172.675437,44.9828828 C171.799753,45.5849844 171.494489,46.7482902 171.383079,47.8207128 C170.908472,52.3807807 172.753424,56.895407 172.630873,61.4781958 C172.532832,65.1248869 171.200366,68.6034439 169.885726,71.9956619 C167.644154,77.7826539 166.476575,84.0672319 166.02425,90.272287 C165.571925,96.477342 164.910148,102.939142 161.643602,108.187651 C160.90161,109.37595 160.037067,110.480181 159.310673,111.675296 C158.548627,112.924941 157.944784,114.26547 157.271867,115.5651 C155.289215,119.403418 152.733396,122.904089 149.695975,125.941697 C148.804694,126.827809 147.859936,127.686656 146.723552,128.197874 C145.244092,128.85242 143.568189,128.870443 142.07552,128.24786 C140.551428,127.604861 139.267983,126.155273 139.205594,124.473933 C139.149888,122.969814 140.030029,121.613382 140.912397,120.409178 C143.903042,116.329434 147.342024,112.612329 151.162133,109.330508 C151.855104,108.735223 152.585955,108.119489 152.944696,107.26973 C153.348001,106.290463 153.183114,105.179415 153.234362,104.118353 C153.316806,102.425652 153.962985,100.81929 154.348464,99.1697588 C155.908206,92.46939 153.136321,85.1532869 155.391263,78.6619496 C155.892609,77.2191777 156.636829,75.8400241 156.812857,74.3200015 C156.937636,73.2566672 156.679165,72.0683685 156.026301,71.2708678 C155.414923,70.554261 155.072999,69.6395395 155.061489,68.689783 C155.061489,68.494384 155.061489,68.3012571 155.083771,68.1104022 C155.355612,65.1362473 155.625224,62.1484599 155.478163,59.1652166 C155.331102,56.1819734 154.749541,53.1828256 153.399249,50.5313062 C152.699593,49.1566968 151.794943,47.8706986 151.362671,46.3870292 C150.667472,43.9854389 151.309194,41.3884495 152.345309,39.1163679 C153.154147,37.3396 154.232597,35.6468991 155.738863,34.4290633 C158.537486,32.1683421 162.726509,31.9070527 165.790288,33.7769759 C168.049687,35.1538574 169.59606,37.4691086 170.850538,39.8298015 C171.750733,41.5543115 172.688806,43.01526 172.675437,44.9828828 Z" id="Shape" fill="#000000" opacity="0.06"></path>
                    <path d="M163.602019,27.646529 C163.174698,28.8368301 162.749603,30.0271311 162.326733,31.2174322 C162.046304,31.9987109 161.7681,32.7868832 161.478768,33.5681619 C160.14339,37.1689375 158.649992,40.7122661 156.313081,43.6926146 C156.662505,43.2468261 153.375249,41.0040967 150.951538,39.4737096 C149.769729,38.7223034 148.790452,38.143238 148.550084,38.0283441 C147.978798,37.7618568 147.394105,37.5271373 146.798513,37.3251932 C145.874876,37.0034902 144.940112,36.7254469 144.016475,36.3784673 C141.87987,35.5811035 143.373268,34.3839088 144.288002,33.0970968 C147.281474,28.8827876 147.84901,23.1243041 151.247547,19.2523789 C152.493938,21.6973155 154.465601,23.6661475 156.87394,24.8706918 C156.920678,24.8959684 156.969642,24.9189472 157.018606,24.9396281 C159.037252,25.9139286 161.267333,26.3344404 163.354974,27.1501873 C163.468481,27.1938469 163.599794,27.2558897 163.637629,27.3799751 C163.651782,27.4705046 163.639381,27.5633356 163.602019,27.646529 Z" id="Shape" fill="#FACFC8"></path>
                    <path d="M157.989412,111.76893 C156.04927,114.668411 155.663856,118.401016 156.967585,121.664992 C157.129736,122.113752 157.382265,122.521015 157.708135,122.859304 C158.122976,123.197461 158.606183,123.43264 159.121113,123.547009 C163.485305,124.842185 168.143959,124.587734 172.613629,123.776243 C174.127768,123.533162 175.615803,123.1378 177.05693,122.595685 C179.269791,121.713131 181.245324,120.303338 183.196684,118.895837 L187.323548,115.92954 C188.659615,114.969046 190.006669,114.003968 191.498757,113.330018 C193.784134,112.300754 196.315629,112.005042 198.805372,112.007334 C200.943991,112.009999 203.077626,112.222596 205.178058,112.642314 C206.577852,112.924273 208.254528,113.215401 209.238998,112.14946 C209.801552,111.546572 209.968561,110.664019 210.078435,109.831897 C210.513207,106.594261 210.505068,103.308625 210.054262,100.073376 C210.043246,99.8011927 209.948468,99.5399524 209.783973,99.3283631 C209.628812,99.1910427 209.440145,99.1013661 209.238998,99.0693279 C207.29423,98.6108585 205.342869,99.5621825 203.453038,100.215501 C199.526144,101.577155 195.309184,101.739912 191.314169,102.86087 C187.12138,104.036844 183.183499,106.262713 178.850072,106.714305 C176.784443,106.929786 174.710024,106.741813 172.639999,106.789952 C170.719403,106.833507 168.928458,107.525796 167.047417,107.60832 C163.421578,107.775662 160.268197,108.435857 157.989412,111.76893 Z" id="Shape" fill="#FACFC8"></path>
                    <path d="M157.989412,111.76893 C156.04927,114.668411 155.663856,118.401016 156.967585,121.664992 C157.129736,122.113752 157.382265,122.521015 157.708135,122.859304 C158.122976,123.197461 158.606183,123.43264 159.121113,123.547009 C163.485305,124.842185 168.143959,124.587734 172.613629,123.776243 C174.127768,123.533162 175.615803,123.1378 177.05693,122.595685 C179.269791,121.713131 181.245324,120.303338 183.196684,118.895837 L187.323548,115.92954 C188.659615,114.969046 190.006669,114.003968 191.498757,113.330018 C193.784134,112.300754 196.315629,112.005042 198.805372,112.007334 C200.943991,112.009999 203.077626,112.222596 205.178058,112.642314 C206.577852,112.924273 208.254528,113.215401 209.238998,112.14946 C209.801552,111.546572 209.968561,110.664019 210.078435,109.831897 C210.513207,106.594261 210.505068,103.308625 210.054262,100.073376 C210.043246,99.8011927 209.948468,99.5399524 209.783973,99.3283631 C209.628812,99.1910427 209.440145,99.1013661 209.238998,99.0693279 C207.29423,98.6108585 205.342869,99.5621825 203.453038,100.215501 C199.526144,101.577155 195.309184,101.739912 191.314169,102.86087 C187.12138,104.036844 183.183499,106.262713 178.850072,106.714305 C176.784443,106.929786 174.710024,106.741813 172.639999,106.789952 C170.719403,106.833507 168.928458,107.525796 167.047417,107.60832 C163.421578,107.775662 160.268197,108.435857 157.989412,111.76893 Z" id="Shape" fill="#FACFC8" opacity="0.06"></path>
                    <path d="M161.643293,106.580412 C161.540267,107.089588 161.448201,107.628715 161.592876,108.126371 C161.772313,108.615756 162.07549,109.044348 162.469693,109.365903 C166.196165,112.872535 171.520635,113.598283 176.498763,114.167362 C177.846869,114.321728 179.219087,114.476093 180.554041,114.220353 C181.770624,113.989957 182.906102,113.425486 184.026235,112.867927 C186.437482,111.667562 188.86188,110.453374 190.928976,108.688538 C192.956615,106.960566 194.58311,104.748761 196.683087,103.119859 C199.070221,101.276689 202.005365,100.221474 204.13603,98.0511404 C205.676461,96.489046 206.700464,94.4495109 207.058022,92.2313296 C207.299147,90.7176259 207.220233,89.1716667 207.058022,87.6464431 C206.884851,85.8931272 206.606461,84.1098598 205.812942,82.5569886 C204.894477,80.7598974 203.351279,79.4028632 201.722592,78.287745 C198.276701,75.9330948 194.219231,74.4723822 190.104768,74.5092456 C184.405459,74.5622367 179.144558,78.0481329 175.054207,81.9625662 C170.72765,86.1084514 167.225959,91.114687 164.751609,96.6918022 C163.354687,99.8503773 162.311591,103.168822 161.643293,106.580412 Z" id="Shape" fill="#333333"></path>
                    <path d="M161.643293,106.580412 C161.540267,107.089588 161.448201,107.628715 161.592876,108.126371 C161.772313,108.615756 162.07549,109.044348 162.469693,109.365903 C166.196165,112.872535 171.520635,113.598283 176.498763,114.167362 C177.846869,114.321728 179.219087,114.476093 180.554041,114.220353 C181.770624,113.989957 182.906102,113.425486 184.026235,112.867927 C186.437482,111.667562 188.86188,110.453374 190.928976,108.688538 C192.956615,106.960566 194.58311,104.748761 196.683087,103.119859 C199.070221,101.276689 202.005365,100.221474 204.13603,98.0511404 C205.676461,96.489046 206.700464,94.4495109 207.058022,92.2313296 C207.299147,90.7176259 207.220233,89.1716667 207.058022,87.6464431 C206.884851,85.8931272 206.606461,84.1098598 205.812942,82.5569886 C204.894477,80.7598974 203.351279,79.4028632 201.722592,78.287745 C198.276701,75.9330948 194.219231,74.4723822 190.104768,74.5092456 C184.405459,74.5622367 179.144558,78.0481329 175.054207,81.9625662 C170.72765,86.1084514 167.225959,91.114687 164.751609,96.6918022 C163.354687,99.8503773 162.311591,103.168822 161.643293,106.580412 Z" id="Shape" fill="#333333" opacity="0.06"></path>
                    <path d="M172.675437,44.9828828 C171.799753,45.5849844 171.494489,46.7482902 171.383079,47.8207128 C170.908472,52.3807807 172.753424,56.895407 172.630873,61.4781958 C172.532832,65.1248869 171.200366,68.6034439 169.885726,71.9956619 C167.644154,77.7826539 166.476575,84.0672319 166.02425,90.272287 C165.571925,96.477342 164.910148,102.939142 161.643602,108.187651 C160.90161,109.37595 160.037067,110.480181 159.310673,111.675296 C158.548627,112.924941 157.944784,114.26547 157.271867,115.5651 C155.289215,119.403418 152.733396,122.904089 149.695975,125.941697 C148.804694,126.827809 147.859936,127.686656 146.723552,128.197874 C145.244092,128.85242 143.568189,128.870443 142.07552,128.24786 C140.551428,127.604861 139.267983,126.155273 139.205594,124.473933 C139.149888,122.969814 140.030029,121.613382 140.912397,120.409178 C143.903042,116.329434 147.342024,112.612329 151.162133,109.330508 C151.855104,108.735223 152.585955,108.119489 152.944696,107.26973 C153.348001,106.290463 153.183114,105.179415 153.234362,104.118353 C153.316806,102.425652 153.962985,100.81929 154.348464,99.1697588 C155.908206,92.46939 153.136321,85.1532869 155.391263,78.6619496 C155.892609,77.2191777 156.636829,75.8400241 156.812857,74.3200015 C156.937636,73.2566672 156.679165,72.0683685 156.026301,71.2708678 C155.414923,70.554261 155.072999,69.6395395 155.061489,68.689783 C155.061489,68.494384 155.061489,68.3012571 155.083771,68.1104022 C155.355612,65.1362473 155.625224,62.1484599 155.478163,59.1652166 C155.331102,56.1819734 154.749541,53.1828256 153.399249,50.5313062 C152.699593,49.1566968 151.794943,47.8706986 151.362671,46.3870292 C150.667472,43.9854389 151.309194,41.3884495 152.345309,39.1163679 C153.154147,37.3396 154.232597,35.6468991 155.738863,34.4290633 C158.537486,32.1683421 162.726509,31.9070527 165.790288,33.7769759 C168.049687,35.1538574 169.59606,37.4691086 170.850538,39.8298015 C171.750733,41.5543115 172.688806,43.01526 172.675437,44.9828828 Z" id="Shape" fill="#FACFC8"></path>
                    <ellipse id="Oval" fill="#FACFC8" cx="159.658496" cy="46.0835072" rx="8.23529681" ry="13.5483915"></ellipse>
                    <path d="M138.967912,117.381108 C139.475007,118.112712 139.639128,119.036864 139.416025,119.904391 C140.215372,120.492049 141.187126,120.781852 142.169678,120.725605 C143.144852,120.671169 144.103608,120.445368 145.003993,120.058082 C145.78707,119.765733 146.528524,119.367668 147.208708,118.874433 C148.378283,117.98899 149.225216,116.722761 149.897385,115.410654 C150.276041,114.685784 150.598682,113.747581 150.121442,113.096115 C149.933851,112.875082 149.705411,112.694217 149.449272,112.563932 C147.722959,111.555659 145.925509,110.680782 144.071918,109.9466 C143.563039,109.706399 143.010089,109.579727 142.449749,109.574989 C141.761896,109.613985 141.136778,109.999359 140.59008,110.430611 C139.361367,111.408857 138.370559,112.665067 137.695271,114.100841 C137.484658,114.559619 136.848338,115.649219 137.164257,116.121761 C137.307654,116.339681 137.836427,116.415379 138.060483,116.553013 C138.416757,116.760238 138.72604,117.042482 138.967912,117.381108 Z" id="Shape" fill="#FBBEBE"></path>
                    <path d="M138.967912,117.381108 C139.475007,118.112712 139.639128,119.036864 139.416025,119.904391 C140.215372,120.492049 141.187126,120.781852 142.169678,120.725605 C143.144852,120.671169 144.103608,120.445368 145.003993,120.058082 C145.78707,119.765733 146.528524,119.367668 147.208708,118.874433 C148.378283,117.98899 149.225216,116.722761 149.897385,115.410654 C150.276041,114.685784 150.598682,113.747581 150.121442,113.096115 C149.933851,112.875082 149.705411,112.694217 149.449272,112.563932 C147.722959,111.555659 145.925509,110.680782 144.071918,109.9466 C143.563039,109.706399 143.010089,109.579727 142.449749,109.574989 C141.761896,109.613985 141.136778,109.999359 140.59008,110.430611 C139.361367,111.408857 138.370559,112.665067 137.695271,114.100841 C137.484658,114.559619 136.848338,115.649219 137.164257,116.121761 C137.307654,116.339681 137.836427,116.415379 138.060483,116.553013 C138.416757,116.760238 138.72604,117.042482 138.967912,117.381108 Z" id="Shape" fill="#FBBEB4" opacity="0.03"></path>
                    <path d="M147.094066,112.235724 C150.813343,112.976695 154.23367,114.906995 157.8892,115.947658 C159.368557,116.367699 160.891878,116.655592 162.305291,117.273855 C163.718704,117.892117 165.050785,118.949299 165.659674,120.454839 C165.917073,121.177501 166.087703,121.93241 166.167447,122.70135 C166.325714,123.789208 166.455406,125.004495 165.853111,125.896492 C165.217845,126.840405 164.017653,127.048065 162.942756,127.187292 C159.078401,127.680486 155.214047,128.17604 151.336503,128.525288 C150.551407,128.576392 149.769744,128.676459 148.995469,128.82498 C148.358005,128.961847 147.735927,129.169508 147.102859,129.329973 C146.282947,129.535274 145.449847,129.665062 144.618945,129.801929 C142.49333,130.129938 140.343536,130.457948 138.209128,130.207811 C137.235346,130.092182 136.145062,129.754733 135.716422,128.810821 C135.538495,128.3216 135.463435,127.796224 135.496606,127.272244 C135.485616,125.870535 135.474625,124.471185 135.496606,123.071835 C135.51639,121.634729 135.582334,120.143348 136.189025,118.861987 C136.339458,118.469676 136.623103,118.153366 136.982558,117.977069 C137.203777,117.909054 137.434995,117.886634 137.663986,117.910995 C138.807026,117.953472 139.989633,118.005387 141.011774,118.552856 C141.822893,118.984696 142.482339,119.704429 143.308845,120.096152 C144.873931,120.841843 146.762145,120.306173 148.347014,121.007027 C148.716304,119.784661 148.632774,118.548136 148.358005,117.295093 C148.083235,116.042049 147.698558,114.812604 147.582056,113.533603 C147.577455,113.252579 147.52686,112.974612 147.432582,112.712399 C147.313882,112.450464 147.353448,112.195607 147.094066,112.235724 Z" id="Shape" fill="#464353"></path>
                    <path d="M147.094066,112.235724 C150.813343,112.976695 154.23367,114.906995 157.8892,115.947658 C159.368557,116.367699 160.891878,116.655592 162.305291,117.273855 C163.718704,117.892117 165.050785,118.949299 165.659674,120.454839 C165.917073,121.177501 166.087703,121.93241 166.167447,122.70135 C166.325714,123.789208 166.455406,125.004495 165.853111,125.896492 C165.217845,126.840405 164.017653,127.048065 162.942756,127.187292 C159.078401,127.680486 155.214047,128.17604 151.336503,128.525288 C150.551407,128.576392 149.769744,128.676459 148.995469,128.82498 C148.358005,128.961847 147.735927,129.169508 147.102859,129.329973 C146.282947,129.535274 145.449847,129.665062 144.618945,129.801929 C142.49333,130.129938 140.343536,130.457948 138.209128,130.207811 C137.235346,130.092182 136.145062,129.754733 135.716422,128.810821 C135.538495,128.3216 135.463435,127.796224 135.496606,127.272244 C135.485616,125.870535 135.474625,124.471185 135.496606,123.071835 C135.51639,121.634729 135.582334,120.143348 136.189025,118.861987 C136.339458,118.469676 136.623103,118.153366 136.982558,117.977069 C137.203777,117.909054 137.434995,117.886634 137.663986,117.910995 C138.807026,117.953472 139.989633,118.005387 141.011774,118.552856 C141.822893,118.984696 142.482339,119.704429 143.308845,120.096152 C144.873931,120.841843 146.762145,120.306173 148.347014,121.007027 C148.716304,119.784661 148.632774,118.548136 148.358005,117.295093 C148.083235,116.042049 147.698558,114.812604 147.582056,113.533603 C147.577455,113.252579 147.52686,112.974612 147.432582,112.712399 C147.313882,112.450464 147.353448,112.195607 147.094066,112.235724 Z" id="Shape" fill="#000000" opacity="0.06"></path>
                    <path d="M23.8443469,73.8748042 C23.1067506,73.6261216 22.3951107,74.3215119 21.9819702,75.0261126 C20.2645172,77.8997782 20.4051147,81.7359376 21.7786446,84.8122335 C22.1054395,85.5923856 22.5561908,86.3066893 23.1110766,86.9237329 C23.8551621,87.70432 24.8133884,88.2039878 25.7067235,88.7658263 C28.1854745,90.3247368 30.3098028,92.4477554 31.927624,94.9828913 C32.9853501,96.6430779 33.8181201,98.469053 35.0186068,100.014109 C37.9733182,103.818031 42.829341,105.540389 45.6953678,109.408785 C46.3810512,110.329831 46.9607456,111.398246 47.8757112,112.068307 C48.9832671,112.878945 50.416224,112.987974 51.620824,112.353261 C52.825424,111.718548 53.6129798,110.439513 53.6791451,109.010432 C54.7931102,107.267351 55.7037497,105.342364 56.5711283,103.445008 C57.8544656,100.548998 58.938829,97.5577293 59.815687,94.4947366 C60.1379798,93.4125067 60.4494574,92.3233691 60.8604348,91.2710732 C61.8749002,88.6737216 63.4906904,86.32275 64.0617327,83.5780309 C64.2910148,82.4773801 64.3472539,81.3329797 64.6803619,80.2645655 C64.9787038,79.3055822 65.4890785,78.4369205 66.1685328,77.7316872 C68.4180934,75.4037417 69.6293953,72.0119873 71.4182286,69.2718735 C72.1450098,68.1643149 72.8999104,67.0590589 73.3801051,65.8064354 C73.8602998,64.5538119 74.0441581,63.1192817 73.596409,61.8528426 C73.1486599,60.5864034 71.9784558,59.5640416 70.7109149,59.6354227 C70.1436489,59.6980525 69.5933207,59.8779499 69.0907986,60.1650245 C67.3439382,61.0474718 65.7416149,62.2229717 64.3450908,63.646581 C63.7344092,64.2721806 63.1567157,64.9332747 62.6146595,65.6268313 C59.9714258,68.9886517 57.9035604,73.0688884 57.7218651,77.4484653 C57.6613,78.9497714 57.7737781,80.6145633 56.8782799,81.7773847 C54.4080892,84.9895349 53.6142539,89.4059537 51.5074538,92.9013258 C50.5319232,94.5131575 49.413632,96.1825546 47.7459288,96.9170893 C47.499605,97.0432137 47.2271036,97.1002797 46.9542565,97.0828777 C46.2880405,97.0022861 45.9051826,96.2562383 45.6239875,95.6069004 C44.5251211,93.0743335 43.2534563,90.630859 41.8192017,88.2960925 C41.2524855,87.3750458 40.6273672,86.430973 39.7210538,85.8898581 C39.1024246,85.523742 38.3842957,85.3602562 37.8024381,84.9319695 C36.9912985,84.3355918 36.5673428,83.3201378 36.1455502,82.3691572 C34.7785357,79.2977385 33.0477318,76.4252803 30.9953541,73.8218441 C30.0565952,72.6313912 28.8193368,71.4017939 27.3701006,71.5790954 C25.9900817,71.7517917 25.1464964,73.2968475 23.8443469,73.8748042 Z" id="Shape" fill="#FACFC8"></path>
                    <path d="M23.8443469,73.8748042 C23.1067506,73.6261216 22.3951107,74.3215119 21.9819702,75.0261126 C20.2645172,77.8997782 20.4051147,81.7359376 21.7786446,84.8122335 C22.1054395,85.5923856 22.5561908,86.3066893 23.1110766,86.9237329 C23.8551621,87.70432 24.8133884,88.2039878 25.7067235,88.7658263 C28.1854745,90.3247368 30.3098028,92.4477554 31.927624,94.9828913 C32.9853501,96.6430779 33.8181201,98.469053 35.0186068,100.014109 C37.9733182,103.818031 42.829341,105.540389 45.6953678,109.408785 C46.3810512,110.329831 46.9607456,111.398246 47.8757112,112.068307 C48.9832671,112.878945 50.416224,112.987974 51.620824,112.353261 C52.825424,111.718548 53.6129798,110.439513 53.6791451,109.010432 C54.7931102,107.267351 55.7037497,105.342364 56.5711283,103.445008 C57.8544656,100.548998 58.938829,97.5577293 59.815687,94.4947366 C60.1379798,93.4125067 60.4494574,92.3233691 60.8604348,91.2710732 C61.8749002,88.6737216 63.4906904,86.32275 64.0617327,83.5780309 C64.2910148,82.4773801 64.3472539,81.3329797 64.6803619,80.2645655 C64.9787038,79.3055822 65.4890785,78.4369205 66.1685328,77.7316872 C68.4180934,75.4037417 69.6293953,72.0119873 71.4182286,69.2718735 C72.1450098,68.1643149 72.8999104,67.0590589 73.3801051,65.8064354 C73.8602998,64.5538119 74.0441581,63.1192817 73.596409,61.8528426 C73.1486599,60.5864034 71.9784558,59.5640416 70.7109149,59.6354227 C70.1436489,59.6980525 69.5933207,59.8779499 69.0907986,60.1650245 C67.3439382,61.0474718 65.7416149,62.2229717 64.3450908,63.646581 C63.7344092,64.2721806 63.1567157,64.9332747 62.6146595,65.6268313 C59.9714258,68.9886517 57.9035604,73.0688884 57.7218651,77.4484653 C57.6613,78.9497714 57.7737781,80.6145633 56.8782799,81.7773847 C54.4080892,84.9895349 53.6142539,89.4059537 51.5074538,92.9013258 C50.5319232,94.5131575 49.413632,96.1825546 47.7459288,96.9170893 C47.499605,97.0432137 47.2271036,97.1002797 46.9542565,97.0828777 C46.2880405,97.0022861 45.9051826,96.2562383 45.6239875,95.6069004 C44.5251211,93.0743335 43.2534563,90.630859 41.8192017,88.2960925 C41.2524855,87.3750458 40.6273672,86.430973 39.7210538,85.8898581 C39.1024246,85.523742 38.3842957,85.3602562 37.8024381,84.9319695 C36.9912985,84.3355918 36.5673428,83.3201378 36.1455502,82.3691572 C34.7785357,79.2977385 33.0477318,76.4252803 30.9953541,73.8218441 C30.0565952,72.6313912 28.8193368,71.4017939 27.3701006,71.5790954 C25.9900817,71.7517917 25.1464964,73.2968475 23.8443469,73.8748042 Z" id="Shape" fill="#FACFC8" opacity="0.03"></path>
                    <ellipse id="Oval" fill="#FACFC8" cx="23.111962" cy="57.2410061" rx="5.57874945" ry="5.04743998"></ellipse>
                    <ellipse id="Oval" fill="#FACFC8" cx="28.9563662" cy="56.4440419" rx="1.85958315" ry="2.12523789"></ellipse>
                    <ellipse id="Oval" fill="#FACFC8" cx="24.174581" cy="54.8501135" rx="7.70398734" ry="2.12523789"></ellipse>
                    <path d="M15.2565717,54.9185419 C15.4484744,55.5525133 15.5994229,56.1991666 15.7084038,56.8541615 C15.0461423,56.1534892 14.4723742,55.3676128 14.0009997,54.5155708 C13.8739325,54.3686354 13.7718222,54.2002062 13.6990541,54.0175167 C12.9952387,52.3105492 12.5151671,50.5832069 12.5151671,48.7132399 C12.5147162,42.6905207 16.9272464,37.6643306 22.6835198,37.1307528 C28.4397932,36.597175 33.6342389,40.7328465 34.6537396,46.6611049 C35.6732402,52.5893633 32.1802979,58.3477033 26.6045096,59.9307779 C26.945556,58.7852533 27.412594,57.6668954 27.4734176,56.478357 C27.5100653,56.0819189 27.4549407,55.6821026 27.3126696,55.3124575 C27.1220365,54.9192789 26.8406177,54.5816485 26.4937239,54.3299325 C25.2511855,53.3406158 23.6523948,52.9082142 22.0883605,52.9353808 C20.5225013,53.0031581 18.9842276,53.3876061 17.5591778,54.0673221 C17.1095179,54.2688077 16.570795,54.5404736 16.0385888,54.7261119 C15.7848552,54.8177371 15.5228329,54.8822126 15.2565717,54.9185419 Z" id="Shape" fill="#FACFC8"></path>
                    <path d="M44.9299439,80.4783798 C44.2136705,81.6713006 42.6831531,82.0357412 41.3376912,81.9293517 C38.8296456,81.7369452 36.5480208,80.344827 34.6103815,78.6697581 C32.6727421,76.9946891 30.9789405,75.0479873 28.9977587,73.4362993 C25.3118896,70.4324932 21.1601163,69.2259909 16.4705936,69.1558191 C17.3871623,68.3658203 17.0497083,66.491554 17.1237305,65.2601519 C17.2848376,62.7701845 17.4372362,60.2145725 17.1237305,57.7608229 C17.0910736,57.4959809 17.0540625,57.2356661 17.0105201,56.9753513 C17.0845423,57.0568412 17.1629187,57.1360674 17.2434722,57.2175573 C20.0801599,60.0479759 24.1369913,61.1237381 27.9309685,60.0515929 C27.8110129,60.4458666 27.717177,60.8482215 27.6501196,61.2558316 C27.3801564,63.0055996 27.8329979,64.7802673 28.2793081,66.4938176 C28.5449171,67.5192314 28.8605999,68.6193443 29.6726668,69.259945 C30.1995305,69.6764486 30.863553,69.8394283 31.4883872,70.0589981 C32.7339129,70.5003857 33.8835664,71.1926573 34.8716362,72.0962442 C35.559607,72.7232632 36.1779099,73.4544082 36.9159546,73.9999374 C37.6178432,74.4616077 38.3572595,74.8584997 39.1257343,75.1860673 C41.0117913,76.091014 42.793761,77.2140578 44.4379141,78.5339417 C44.7482092,78.7352657 44.9896717,79.0330463 45.1280621,79.3850578 C45.2102406,79.7623038 45.1385211,80.15809 44.9299439,80.4783798 Z" id="Shape" fill="#FACFC8"></path>
                    <path d="M57.8876399,102.643897 C57.7373801,103.692057 56.827111,104.510357 56.1846961,105.324061 C54.4381987,107.549103 52.6677469,109.781041 50.7143702,111.817598 C48.6237998,113.99437 46.3285277,115.934386 44.0354333,117.874402 L41.0607259,120.386768 C40.6937541,120.740924 40.2636491,121.014411 39.7954952,121.191278 C39.2470984,121.335677 38.6675783,121.262894 38.1665925,120.986702 C37.9670758,120.885875 37.77805,120.763388 37.602574,120.621225 C36.9862913,120.115534 36.5333344,119.425955 36.0912658,118.747869 C34.0790918,115.647827 32.0647401,112.54702 30.0482108,109.445446 C29.3295772,108.337522 28.6240097,107.199716 27.9227975,106.061911 C27.8291574,105.9148 27.7398726,105.765392 27.6462325,105.618281 C27.0059953,104.583913 26.3679358,103.549544 25.7124549,102.549654 L22.1279977,100.777436 L21.6576194,100.547576 L21.1023116,100.274043 C20.3640789,99.9085658 19.6149579,99.5361931 19.0008528,98.9707382 C18.4128121,98.3873007 17.9231055,97.7025074 17.5526973,96.945674 C16.8354353,95.5459776 16.2082968,94.0968809 15.6755393,92.6082211 C14.151165,88.5465998 12.8097157,84.3125837 12.7530961,79.9406518 C12.7030095,76.0950986 13.7787822,72.0955395 16.2003596,69.2728621 C16.531361,68.8844706 16.8871535,68.5204419 17.2652438,68.183327 C17.7312668,67.7718781 18.2125336,67.5305254 18.8113949,67.6201707 C19.4102562,67.709816 19.97863,67.8017598 20.5535369,67.9051967 C22.1388861,68.1932876 23.7118951,68.5457391 25.272564,68.9625514 C26.6793437,69.34182 28.1362099,69.7739563 29.5582333,69.47284 C29.7868895,69.4245695 30.0133679,69.3556116 30.2398464,69.2935494 C30.424949,69.2429803 30.6078739,69.1947098 30.7973318,69.1625294 C30.9024897,69.1433428 31.0086739,69.13106 31.1152727,69.1257518 C31.8709268,69.0843771 32.5960934,69.4038821 33.2929502,69.7187899 C34.6235112,70.3210224 35.9932703,70.9554352 36.995002,72.0633591 C37.5916856,72.7299523 38.0293988,73.5482529 38.6652806,74.1757699 C39.5145748,75.0147579 40.6469671,75.4445956 41.6661202,76.0445295 C41.8630026,76.1598029 42.0528339,76.2880104 42.234494,76.4283952 C42.6364411,76.7463948 43.0018586,77.1128174 43.3233328,77.5202289 C44.6430054,79.1637259 45.4269693,81.3818722 46.8838355,83.0161749 C48.0497512,84.3217625 49.0630775,85.7702663 49.9020965,87.3306418 C50.0392902,87.5903833 50.1721285,87.8524234 50.3027892,88.1190607 C50.5205569,88.5626899 50.7230809,89.013215 50.9103612,89.4683373 C50.9582701,89.5855657 51.006179,89.698197 51.0497326,89.8200226 C51.3237516,90.508737 51.5629073,91.2123334 51.7661884,91.9278363 C52.2605212,93.6632772 52.5893505,95.5366339 53.6869,96.9295838 C54.4534425,97.8972933 55.5161491,98.5386019 56.4111746,99.3729927 C56.9875622,99.8883527 57.4411037,100.539514 57.7352025,101.273933 C57.8968203,101.709142 57.9493248,102.181004 57.8876399,102.643897 Z" id="Shape" fill="#FACFC8"></path>
                    <path d="M52.0683282,88.7292786 C51.8187487,89.0599393 51.5626394,89.3860285 51.3000005,89.7075465 C51.2564691,89.766974 51.2085847,89.8241158 51.1607002,89.8812576 C48.8695806,92.6957302 46.2468039,95.1926822 43.3555351,97.3119789 C41.5663979,98.6239549 39.6793154,99.7873622 37.7965859,100.948484 L34.3140805,103.090159 C32.857958,103.988428 31.3822463,104.893555 29.7672344,105.410117 C29.2492118,105.572399 28.7072469,105.702683 28.1783414,105.855823 C28.084749,105.70954 27.9955098,105.560971 27.9019175,105.414688 C27.2620071,104.386135 26.6242733,103.357583 25.969127,102.363315 L22.3864996,100.601062 C24.3650385,99.2877316 26.1203695,97.6360038 27.5797858,95.7142938 C29.7563516,92.8960596 31.4301308,89.6824041 33.0799677,86.4893196 C33.3724568,85.9738234 33.5999947,85.4206412 33.7568797,84.8436354 C33.9745362,83.8859386 33.7917047,82.8802427 33.5239871,81.9385456 C32.5439819,78.5621435 30.4833712,75.6449092 27.6907906,73.6804109 C25.7318813,72.3090074 23.5030779,71.4747369 21.2873339,70.6701802 C19.7397955,70.1079047 18.0442507,69.5639147 16.4705936,69.7947676 C16.8008943,69.408732 17.1565454,69.0474731 17.5349343,68.7136445 C18.0007194,68.3022235 18.4817405,68.0622279 19.0802961,68.1513691 C19.6788517,68.2405103 20.2469354,68.3319372 20.8215488,68.4370781 C21.9860115,68.8119284 23.1308851,69.2599202 24.2692291,69.7216261 C25.0180843,70.0098958 25.7455938,70.3559779 26.4457949,70.7570357 C27.1427487,71.2038736 27.8122739,71.6962635 28.4504121,72.2312945 C30.3376883,73.7420459 32.3248199,75.1100383 34.39679,76.324934 C36.7910125,77.7123372 39.304946,78.8391737 41.816703,79.98201 C42.0830676,80.1256867 42.3770667,80.2038479 42.6764465,80.2105772 C42.9849422,80.2100133 43.2537855,79.9898038 43.3294163,79.6757299 C43.3393601,79.5092317 43.3030666,79.3432821 43.2249411,79.1980243 C42.789628,78.2631842 41.8014671,77.7923357 40.9068985,77.3374869 C37.1936771,75.4495214 33.9288284,72.7318568 30.6988046,70.0347632 C30.6203442,69.9694731 30.5514135,69.8924667 30.4942074,69.806196 L31.0514083,69.6759126 C34.666188,72.4023864 38.4838483,74.8192707 42.4674962,76.9032091 C42.6778976,77.0159689 42.8890245,77.1256812 43.1008769,77.2323459 C43.2532365,77.3123445 43.4034195,77.3900573 43.5579557,77.4609132 C44.6310027,78.0140459 45.7040496,78.6037494 46.5115556,79.5180184 C47.0323388,80.1486397 47.4714555,80.8487866 47.8174951,81.6002661 C48.7071156,83.3652403 49.4667795,85.1991352 50.0898298,87.0858801 C50.1016849,87.1262098 50.1154876,87.1658795 50.1311846,87.2047351 C50.2101566,87.4929613 50.3466814,87.7602188 50.5316727,87.9887208 C50.5968429,88.0653487 50.674167,88.1295355 50.7602121,88.1784316 C51.1694065,88.4321412 51.7309605,88.4047131 52.0683282,88.7292786 Z" id="Shape" fill="#000000" opacity="0.06"></path>
                    <path d="M31.0645762,69.1514042 C34.6799916,71.8738344 38.4988855,74.2863413 42.4841553,76.3654861 L43.1177296,76.6964073 C44.3369792,77.3217342 45.6063052,77.9424967 46.5316286,78.9786223 C47.0521244,79.6094774 47.4913261,80.3092543 47.8379675,81.0600025 C48.7284416,82.8217064 49.4876544,84.6529344 50.1088199,86.5373187 C50.2481627,86.9549641 50.4114551,87.4136893 50.7815844,87.6282175 C51.1517138,87.8427457 51.7395663,87.8267702 52.0683282,88.1508448 C51.7722247,88.5388213 51.4717668,88.9222335 51.1604227,89.2919523 C48.8692323,92.1034724 46.2455831,94.5974813 43.3528706,96.7137157 C41.5631863,98.0237072 39.6755267,99.1853547 37.7922214,100.34472 L34.3086511,102.483155 C32.8520832,103.377784 31.3759203,104.281541 29.7604145,104.797322 C29.152967,104.99131 28.5106837,105.137372 27.8945272,105.324513 C27.2544211,104.297516 26.6164923,103.27052 25.9611456,102.277756 L21.9071406,100.287665 C24.0843721,98.9959308 25.9829179,97.1587477 27.5679424,95.1161652 C29.7451739,92.3044762 31.4194649,89.0956818 33.0698064,85.9074273 C33.3620145,85.3925125 33.5896007,84.8402188 33.7469254,84.2642325 C33.9646485,83.3079844 33.7817611,82.3015275 33.5139616,81.3612549 C32.53314,78.0007343 30.4779495,75.0969167 27.6942219,73.138434 C25.7347135,71.7691049 23.5052285,70.9383786 21.2888069,70.1327567 C19.7407953,69.573614 18.044732,69.0281646 16.4705936,69.2609505 C16.8015273,68.8753271 17.1572469,68.5138929 17.5352598,68.1791806 C18.0011873,67.7706641 18.4823555,67.5310315 19.0810942,67.6200379 C19.6798328,67.7090443 20.2480902,67.8003329 20.8228793,67.9030326 C21.9876982,68.279598 23.1329219,68.7269122 24.271614,69.1879196 C25.0210848,69.4747622 25.7488861,69.8203537 26.4488455,70.2217631 C27.1460124,70.667925 27.8157423,71.1595702 28.4540756,71.6937918 C30.3450172,73.1987779 32.3356739,74.5608927 34.410981,75.7698279 C36.8059356,77.1574147 39.3206379,78.2916756 41.8331631,79.4213721 C42.0995548,79.5649821 42.3936775,79.643034 42.6931695,79.6495936 C43.002296,79.6506681 43.2720696,79.4300983 43.3463389,79.1155553 C43.3561112,78.9500505 43.3198042,78.7851341 43.2418318,78.6408545 C42.8063855,77.7074285 41.8179224,77.23501 40.9230803,76.7831314 C37.2087234,74.8980218 33.9428762,72.1821858 30.7118647,69.4800432 C30.6327487,69.4155755 30.5637004,69.3385779 30.5072049,69.2518217 L31.0645762,69.1514042 Z" id="Shape" fill="#2856FC"></path>
                    <ellipse id="Oval" fill="#2856FC" cx="62.4288629" cy="67.335886" rx="14.079701" ry="14.6110105"></ellipse>
                    <path d="M75.9222214,124.451654 C78.5054619,123.602033 81.1282754,122.736295 83.39713,121.18211 C84.9910443,120.090728 86.3651084,118.686205 87.811723,117.387598 C88.8999818,116.41134 90.0344091,115.490341 91.0325292,114.412773 C91.9267288,113.404399 92.763601,112.341886 93.5388221,111.230724 C95.3034868,108.811569 97.1260453,106.438464 99.0064978,104.111408 C100.01561,102.870363 101.081884,101.606293 102.491124,100.915544 C104.995219,99.6837089 107.934617,100.51491 110.577217,101.359926 C114.534521,102.626298 118.472039,103.968653 122.174317,105.895842 C124.280483,106.994133 126.320693,108.21906 128.446645,109.271301 C132.333597,111.193884 136.460187,112.513214 140.571386,113.825637 C140.876856,113.96182 141.216184,113.990897 141.538727,113.908527 C141.769311,113.797791 141.967424,113.62449 142.112537,113.406583 C142.648622,112.713102 143.078099,111.936258 143.38547,111.104087 C143.507029,110.907966 143.461746,110.646625 143.28214,110.507741 C141.523338,108.714097 139.241292,107.611201 137.108745,106.333316 C135.411501,105.317916 133.786808,104.17818 132.164313,103.038445 C130.605574,101.94476 129.033645,100.839562 127.725536,99.4327369 C127.065985,98.7212658 126.47239,97.9361148 125.757876,97.286811 C125.126604,96.7460024 124.457889,96.2549906 123.757239,95.8178188 C120.623339,93.721884 117.632056,91.4007683 114.804937,88.8711895 C112.654801,86.9463032 110.893801,84.4665154 108.596366,82.7396437 C107.187126,81.6804958 105.547043,80.7157501 103.823417,80.9091597 C101.726045,81.1394093 100.1783,82.9814058 98.7162955,84.5701277 C93.8026424,89.9142201 87.6028653,93.7386653 82.1198,98.4380588 C77.6436489,102.269412 73.4598986,106.821445 68.0076124,108.843036 C68.2516461,109.690355 68.3373877,110.537673 68.58362,111.375782 C68.8904783,112.540806 69.2731807,113.682446 69.7290398,114.792685 C70.1810656,115.775901 70.689862,116.729365 71.2526021,117.64778 L73.4379136,121.38473 C73.8776141,122.144554 74.3371011,122.91589 74.9658728,123.519144 C75.2956482,123.850703 75.9222214,123.970433 75.9222214,124.451654 Z" id="Shape" fill="#333333"></path>
                    <path d="M75.9222214,124.451654 C78.5054619,123.602033 81.1282754,122.736295 83.39713,121.18211 C84.9910443,120.090728 86.3651084,118.686205 87.811723,117.387598 C88.8999818,116.41134 90.0344091,115.490341 91.0325292,114.412773 C91.9267288,113.404399 92.763601,112.341886 93.5388221,111.230724 C95.3034868,108.811569 97.1260453,106.438464 99.0064978,104.111408 C100.01561,102.870363 101.081884,101.606293 102.491124,100.915544 C104.995219,99.6837089 107.934617,100.51491 110.577217,101.359926 C114.534521,102.626298 118.472039,103.968653 122.174317,105.895842 C124.280483,106.994133 126.320693,108.21906 128.446645,109.271301 C132.333597,111.193884 136.460187,112.513214 140.571386,113.825637 C140.876856,113.96182 141.216184,113.990897 141.538727,113.908527 C141.769311,113.797791 141.967424,113.62449 142.112537,113.406583 C142.648622,112.713102 143.078099,111.936258 143.38547,111.104087 C143.507029,110.907966 143.461746,110.646625 143.28214,110.507741 C141.523338,108.714097 139.241292,107.611201 137.108745,106.333316 C135.411501,105.317916 133.786808,104.17818 132.164313,103.038445 C130.605574,101.94476 129.033645,100.839562 127.725536,99.4327369 C127.065985,98.7212658 126.47239,97.9361148 125.757876,97.286811 C125.126604,96.7460024 124.457889,96.2549906 123.757239,95.8178188 C120.623339,93.721884 117.632056,91.4007683 114.804937,88.8711895 C112.654801,86.9463032 110.893801,84.4665154 108.596366,82.7396437 C107.187126,81.6804958 105.547043,80.7157501 103.823417,80.9091597 C101.726045,81.1394093 100.1783,82.9814058 98.7162955,84.5701277 C93.8026424,89.9142201 87.6028653,93.7386653 82.1198,98.4380588 C77.6436489,102.269412 73.4598986,106.821445 68.0076124,108.843036 C68.2516461,109.690355 68.3373877,110.537673 68.58362,111.375782 C68.8904783,112.540806 69.2731807,113.682446 69.7290398,114.792685 C70.1810656,115.775901 70.689862,116.729365 71.2526021,117.64778 L73.4379136,121.38473 C73.8776141,122.144554 74.3371011,122.91589 74.9658728,123.519144 C75.2956482,123.850703 75.9222214,123.970433 75.9222214,124.451654 Z" id="Shape" fill="#333333" opacity="0.06"></path>
                    <path d="M135.770282,120.031243 C136.276567,120.763268 136.440636,121.68706 136.218454,122.554677 C137.014888,123.14397 137.984453,123.436236 138.965749,123.382823 C139.942876,123.327562 140.903709,123.102599 141.80716,122.717554 C142.589933,122.424242 143.331366,122.026217 144.012167,121.533833 C145.184137,120.648337 146.028942,119.382032 146.712404,118.067552 C147.09111,117.344932 147.413794,116.406673 146.925286,115.755168 C146.738761,115.532942 146.510041,115.351868 146.253028,115.222953 C144.529926,114.215473 142.736025,113.340564 140.886166,112.605463 C140.376933,112.36584 139.824195,112.238445 139.263783,112.231536 C138.573598,112.270535 137.948398,112.658226 137.401628,113.089504 C136.173568,114.068067 135.183412,115.324333 134.508677,116.759954 C134.298036,117.21876 133.661632,118.310719 133.975352,118.78329 C134.118767,119.001223 134.64761,119.076926 134.871696,119.212274 C135.223859,119.417949 135.529976,119.696943 135.770282,120.031243 Z" id="Shape" fill="#FBBEB4"></path>
                    <path d="M145.495576,114.360965 C149.215736,115.104351 152.636876,117.032433 156.293274,118.073173 C157.772983,118.493245 159.296665,118.781159 160.710414,119.399467 C162.124162,120.017775 163.45656,121.075034 164.065593,122.580685 C164.322803,123.303484 164.493466,124.058414 164.573487,124.827361 C164.731792,125.9153 164.861514,127.130677 164.259077,128.022739 C163.623659,128.966721 162.423182,129.176757 161.34803,129.313634 C157.482757,129.809224 153.617485,130.302455 149.739021,130.651728 C148.955309,130.704184 148.174995,130.804249 147.401828,130.951442 C146.764212,131.090679 146.141987,131.295995 145.508768,131.456472 C144.69086,131.664148 143.855364,131.791586 143.024264,131.928463 C140.898144,132.254137 138.747839,132.58453 136.612925,132.332015 C135.638911,132.216377 134.548368,131.878904 134.119626,130.934922 C133.941657,130.445665 133.866579,129.92025 133.899759,129.396232 C133.899759,127.99678 133.877772,126.594967 133.899759,125.195514 C133.919547,123.758302 133.985507,122.266811 134.592342,120.985356 C134.74337,120.593409 135.02691,120.277268 135.386064,120.100373 C135.607335,120.032353 135.838608,120.009932 136.067653,120.034295 C137.210965,120.076774 138.393852,120.128693 139.416237,120.676202 C140.227548,121.108074 140.812396,119.817179 141.639098,120.204211 C143.206754,120.947597 142.144794,118.693841 143.72784,119.394747 C144.097218,118.172291 145.667073,118.899157 145.394437,117.646021 C145.121801,116.392886 146.100212,116.938035 145.988079,115.6495 C145.98325,115.368481 145.932651,115.090536 145.838569,114.828236 C145.715444,114.575721 145.75502,114.320846 145.495576,114.360965 Z" id="Shape" fill="#333333"></path>
                    <path d="M35.0664251,41.1834824 C34.2002567,41.7125285 33.1264758,41.6142102 32.1174343,41.5908011 C31.2349972,41.5716809 30.3523953,41.6194035 29.4765137,41.7335967 C29.1611062,41.7567049 28.8527671,41.8425019 28.5679299,41.9864152 C28.1970122,42.2372971 27.9037938,42.5960146 27.7240854,43.0187573 C27.3668337,43.7383258 27.1261739,44.5151789 27.0119521,45.3175328 C26.8869381,46.2187838 26.9003325,47.2043077 26.3645582,47.9182858 C25.6345658,48.8897643 24.4960455,48.7399459 23.4624477,48.9319007 C22.5629067,49.1129247 21.7007265,49.4583971 20.9152876,49.9525382 C19.3481071,50.9448699 18.2707062,52.6036387 17.9640644,54.4962482 C17.9350433,54.7092711 17.9149517,54.9199532 17.9060221,55.1329762 C17.8836982,55.7369314 17.9417404,56.3525913 17.8658391,56.944842 C17.8474665,57.0926782 17.8191184,57.2389621 17.7810082,57.3825925 C17.7711206,57.4248225 17.7584396,57.4662789 17.7430575,57.5066608 C17.7095716,57.2327741 17.6716209,56.9635693 17.6269731,56.6943644 C16.9463818,55.9698514 16.3567334,55.1572354 15.8723124,54.2762024 C15.7417283,54.1242674 15.6367919,53.9501074 15.5620098,53.7612018 C14.8387145,51.9961543 14.3453557,50.2100385 14.3453557,48.2764453 C14.3450383,43.0747521 17.535405,38.4630116 22.2510153,36.8486522 C26.9666256,35.2342928 32.1374445,36.9836342 35.0641927,41.1834824 L35.0664251,41.1834824 Z" id="Shape" fill="#000000" opacity="0.06"></path>
                    <path d="M35.3196578,36.452019 C34.7591657,35.1043228 33.5749352,34.1484777 32.3579911,33.3987509 C29.9589975,31.9128875 27.197974,30.9796928 24.3976942,30.9411872 C22.9848282,30.9415758 21.5757719,31.0933822 20.1929126,31.3941944 C18.8453297,31.6443742 17.5251553,32.0336247 16.2520204,32.5561577 C14.1513004,33.4635356 12.2943996,34.8875882 10.8411994,36.705703 C10.5359332,36.7297451 10.2331663,36.7805112 9.9361245,36.8574604 C8.74971311,37.1655052 7.6810705,37.8427509 6.70620674,38.610598 C5.89039402,39.2243327 5.16586177,39.9592623 4.5558361,40.7918273 C3.84188794,41.8550571 3.34805192,43.0605335 3.10553542,44.332078 C2.27461127,48.3094807 3.2974549,52.4137253 4.04768563,56.4069831 C4.79791636,60.400241 5.23627792,64.7626997 3.39341465,68.3505162 C2.6977065,69.7095376 1.70975731,70.8647057 0.968250199,72.1874866 C0.226743083,73.5102674 -0.266141059,75.1025875 0.154773274,76.5703306 C0.656381029,78.3551787 2.34440017,79.4876965 3.2254851,81.0936068 C4.3346281,83.252891 3.9177238,85.9157157 2.20700326,87.5987892 C3.59187685,88.097097 5.13377547,87.5602836 6.38125215,86.762991 C7.37033233,86.1648699 8.21181845,85.3358988 8.83913015,84.3416679 C10.4071996,81.7051664 9.71149146,78.3008178 10.2567173,75.2543448 C10.9829581,71.2678821 13.9140921,67.7117761 13.510625,63.6754826 C13.2380121,60.9574398 11.5107367,58.7037293 10.1520339,56.3730076 C9.24574022,54.818635 8.48407274,53.1781349 7.8773518,51.4737355 C7.44117114,50.2574113 7.08786481,48.9504857 7.30377423,47.6730056 C7.37521621,47.2829818 7.49012319,46.9029189 7.64617605,46.5404878 C7.64617605,46.5835235 7.64617605,46.6265592 7.64617605,46.6695948 C7.67103085,47.8428428 7.92476957,48.9986636 8.39204497,50.0671483 C10.014637,53.5100025 14.3350064,54.7784225 16.1647843,58.1057599 C16.6991056,57.5009954 17.2552359,56.8667854 17.4733262,56.078553 C17.6652457,55.3763919 17.5671051,54.6289301 17.5954568,53.8995887 C17.6717884,51.8610566 18.8647425,49.9403063 20.5353145,48.8893298 C21.3020424,48.4104096 22.1446088,48.076794 23.0237251,47.9040393 C24.0313024,47.7160413 25.1435631,47.8587386 25.8588994,46.9187488 C26.3823162,46.2392381 26.3692307,45.2743329 26.4935422,44.4045592 C26.6040969,43.6272401 26.839254,42.8746479 27.1892504,42.1780291 C27.3641932,41.7691804 27.6508345,41.4226525 28.0136318,41.1814134 C28.2922511,41.0409867 28.5944147,40.9579166 28.9034403,40.9367896 C29.7583839,40.8262336 30.6199083,40.7800573 31.481268,40.7986224 C32.4779408,40.8235378 33.5444025,40.9164043 34.3993166,40.3841209 C35.6031752,39.6230689 35.8801499,37.8110404 35.3196578,36.452019 Z" id="Shape" fill="#333333"></path>
                    <path d="M156.204985,24.9439091 C156.204985,24.9760647 156.204985,25.0059234 156.204985,25.0380789 C155.825397,28.6211246 152.679642,28.4557533 151.945633,34.1013471 C151.656223,36.3131887 148.590161,36.7220234 146.57478,37.3169009 C145.704455,36.9953455 144.823644,36.7174298 143.953318,36.3706093 C141.940035,35.5736114 143.347236,34.376966 144.209173,33.0907444 C147.029866,28.8783689 147.564645,23.1225276 150.767023,19.2523789 C151.941474,21.6961937 153.799336,23.6641224 156.068669,24.8681139 C156.112709,24.9002695 156.158847,24.9232377 156.204985,24.9439091 Z" id="Shape" fill="#000000" opacity="0.06"></path>
                    <path d="M158.861532,21.64178 C158.86122,22.1924072 158.831266,22.7425863 158.771811,23.2897461 C157.912823,31.1477772 151.184632,36.8701416 143.590972,36.2011349 C135.997311,35.5321282 130.295039,28.7146315 130.724918,20.8187956 C131.154796,12.9229597 137.560758,6.81534629 145.17871,7.03816827 C152.796663,7.26099024 158.860928,13.7333527 158.861532,21.64178 Z" id="Shape" fill="#FACFC8"></path>
                    <path d="M163.111841,23.5096797 C164.676321,23.4288376 166.179876,24.0801938 167.624681,24.7200012 C173.353856,27.2607524 179.130902,29.8222916 184.250821,33.5525764 C186.774879,35.4003954 189.113984,37.4976701 191.448737,39.6018741 L201.042331,48.2542869 C202.885328,49.9150143 204.74138,51.5919101 206.221,53.6245111 C207.091925,54.878136 207.886309,56.189693 208.599271,57.5511266 L210.022318,60.1265245 C210.605278,61.1345537 211.114487,62.188597 211.545456,63.2793658 C212.276562,65.268081 212.548551,67.587094 214.023819,69.0399417 C215.013859,70.0169761 216.378155,70.4142572 217.587962,71.0586841 C218.797769,71.703111 219.981465,72.8349002 219.961882,74.2715795 C219.961882,75.195489 219.435311,76.0270076 219.039295,76.8585262 C218.219046,78.5960594 217.875241,80.5432937 218.047079,82.478206 L202.358757,69.7513521 C201.734271,69.2455116 201.081497,68.7235027 200.3134,68.5525795 C199.316833,68.3216021 198.300682,68.7211929 197.338929,69.0815177 C189.75706,71.919846 181.69991,73.0441206 173.684595,72.3821845 C170.140035,72.0865334 166.541077,71.4097697 163.438228,69.5688799 C161.721433,68.5525795 160.202647,67.2059813 158.69474,65.8732418 C156.812577,64.2009655 154.923886,62.5240697 153.254962,60.611577 C152.819779,60.101117 152.36719,59.5398419 152.256218,58.8561488 C152.173534,58.3618572 152.275801,57.8583265 152.314968,57.3594154 C152.589133,53.8554885 149.847484,50.9382441 149.011934,47.5359472 C148.255097,44.2655441 149.279935,40.8201252 151.668722,38.6040518 C153.53783,40.3410017 153.470377,43.3922129 153.252786,46.0184258 C152.959038,49.5546896 153.890328,51.3078079 153.59658,54.8463815 C154.780276,54.800186 154.56486,55.6086068 155.069672,54.4698883 C155.574483,53.3311698 155.672399,52.0469355 155.768139,50.7927284 C156.117736,46.2563325 156.542039,41.7276359 157.041048,37.2066386 C157.289102,34.94537 157.57197,32.6887209 157.843959,30.4297621 C158.009328,29.0554467 157.987569,27.7712124 158.670805,26.5516518 C159.619503,24.8632072 161.231853,23.6043804 163.111841,23.5096797 Z" id="Shape" fill="#2856FC"></path>
                    <path d="M165.256983,27.8943926 C166.273834,27.5690058 167.368391,27.867277 168.389682,28.1768464 C170.195443,28.7221705 171.990843,29.2983763 173.775882,29.9054637 C175.234551,30.4003228 176.713203,30.931336 177.947633,31.8645634 C179.228687,32.8316852 180.167831,34.1761654 181.098093,35.4980492 C181.764153,36.4493537 182.430212,37.4119563 182.874251,38.4920596 C183.451503,39.9065883 183.606917,41.4566949 183.76233,42.9796858 C183.864252,43.6369116 183.855994,44.3069646 183.737908,44.9613818 C183.529415,45.671938 183.162417,46.3238516 182.665553,46.8662503 C181.901211,47.7870043 181.015044,48.5953736 180.032398,49.2682376 C177.419226,51.0578649 174.259885,51.803543 171.182691,52.4610955 C168.436306,53.0463398 165.66994,53.5909107 162.868051,53.7671619 C161.777934,53.8372104 160.512421,53.7671619 159.846362,52.8904253 C159.656802,52.6170906 159.50723,52.3171992 159.402322,52.0001308 C157.765191,47.5872099 157.056467,42.8736689 157.321997,38.1644132 C157.346084,37.3060306 157.47663,36.4541841 157.710532,35.6291078 C157.941061,34.9688468 158.227044,34.330023 158.565308,33.71972 C159.406763,32.0995649 160.292622,30.4229191 161.742411,29.3382964 C163.258806,28.2084812 165.22368,27.8514596 167.104188,27.9237677" id="Shape" fill="#FACFC8"></path>
                    <path d="M175.86297,44.9828828 C174.987295,45.5849844 174.682034,46.7482902 174.570625,47.8207128 C174.096022,52.3807807 175.940957,56.895407 175.818407,61.4781958 C175.720367,65.1135265 174.387914,68.6034439 173.073287,71.9956619 C170.831736,77.7826539 169.664168,84.0672319 169.211847,90.272287 C168.759526,96.477342 168.097756,102.939142 164.831242,108.187651 C164.089257,109.37595 163.224723,110.480181 162.498335,111.675296 C161.736297,112.924941 161.13246,114.26547 160.459549,115.5651 C158.476917,119.403418 155.921123,122.904089 152.883731,125.941697 C151.992458,126.827809 151.047709,127.686656 149.911336,128.197874 C148.43189,128.85242 146.756003,128.870443 145.263349,128.24786 C143.739272,127.604861 142.455839,126.155273 142.39345,124.473933 C142.337746,122.969814 143.217878,121.613382 144.100238,120.409178 C147.090854,116.329434 150.529802,112.612329 154.349874,109.330508 C155.042839,108.735223 155.773683,108.119489 156.13242,107.26973 C156.535721,106.290463 156.370835,105.179415 156.422083,104.118353 C156.504526,102.425652 157.150699,100.81929 157.536174,99.1697588 C159.095902,92.46939 156.324043,85.1532869 158.578963,78.6619496 C159.080304,77.2191777 159.824517,75.8400241 160.000544,74.3200015 C160.125322,73.2566672 159.864624,72.0683685 159.213995,71.2708678 C158.602826,70.5539658 158.26025,69.6396023 158.246964,68.689783 C158.246964,68.494384 158.246964,68.3012571 158.271474,68.1104022 C158.543313,65.1362473 158.812923,62.1484599 158.665863,59.1652166 C158.518803,56.1819734 157.937247,53.1828256 156.586969,50.5313062 C155.88732,49.1566968 154.982678,47.8706986 154.550411,46.3870292 C153.855218,43.9854389 154.496934,41.3884495 155.533039,39.1163679 C156.341869,37.3396 157.420309,35.6468991 158.92656,34.4290633 C161.725156,32.1683421 165.914138,31.9070527 168.977888,33.7769759 C171.237265,35.1538574 172.783623,37.4691086 174.038089,39.8298015 C174.938275,41.5543115 175.88748,43.01526 175.86297,44.9828828 Z" id="Shape" fill="#000000" opacity="0.06"></path>
                    <path d="M176.394554,44.9828828 C175.518877,45.5849844 175.213615,46.7482902 175.102206,47.8207128 C174.627602,52.3807807 176.472541,56.895407 176.34999,61.4781958 C176.25195,65.1135265 174.919494,68.6034439 173.604864,71.9956619 C171.363308,77.7826539 170.197966,84.0672319 169.743416,90.272287 C169.288866,96.477342 168.629323,102.939142 165.362801,108.187651 C164.620815,109.37595 163.758506,110.480181 163.029889,111.675296 C162.270078,112.924941 161.664011,114.26547 160.991098,115.5651 C159.007819,119.403005 156.452089,122.903579 153.415263,125.941697 C152.523988,126.827809 151.577009,127.686656 150.440634,128.197874 C148.961185,128.85242 147.285294,128.870443 145.792636,128.24786 C144.270784,127.604861 142.987349,126.155273 142.924959,124.473933 C142.867026,122.969814 143.74716,121.613382 144.63175,120.409178 C147.622283,116.329357 151.061248,112.612242 154.88141,109.330508 C155.574376,108.735223 156.30745,108.119489 156.663959,107.26973 C157.069489,106.290463 156.902375,105.179415 156.953624,104.118353 C157.036067,102.425652 157.682241,100.81929 158.067717,99.1697588 C159.627448,92.46939 156.855584,85.1532869 159.110509,78.6619496 C159.611851,77.2191777 160.358293,75.8400241 160.53432,74.3200015 C160.65687,73.2566672 160.398401,72.0683685 159.74777,71.2708678 C159.12522,70.5589037 158.772759,69.6434683 158.753999,68.689783 C158.753999,68.494384 158.753999,68.3012571 158.778509,68.1104022 C159.048119,65.1362473 159.31773,62.1484599 159.17067,59.1652166 C159.023609,56.1819734 158.442053,53.1828256 157.091771,50.5313062 C156.392121,49.1566968 155.487477,47.8706986 155.055209,46.3870292 C154.360014,43.9854389 155.001732,41.3884495 156.037839,39.1163679 C156.848899,37.3396 157.925113,35.6468991 159.431368,34.4290633 C162.22997,32.1683421 166.418961,31.9070527 169.482718,33.7769759 C171.7421,35.1538574 173.288462,37.4691086 174.542931,39.8298015 C175.4654,41.5543115 176.410151,43.01526 176.394554,44.9828828 Z" id="Shape" fill="#FACFC8"></path>
                    <path d="M198.10405,104.261894 L197.647123,104.400035" id="Shape" fill="#464353"></path>
                    <path d="M159.924151,114.888084 C159.943819,114.708999 159.975773,114.531477 160.019787,114.356774" id="Shape" fill="#464353"></path>
                    <path d="M207.600507,99.5285793 C208.201869,98.7726496 209.12897,98.4344107 210.020574,98.1824341 C211.457349,97.7786307 212.925127,97.5187582 214.405511,97.4060738 C215.324461,97.2985191 216.253524,97.3606872 217.153405,97.5899486 C218.042921,97.8555456 218.886499,98.4321407 219.337521,99.3061135 C219.736341,100.077934 219.798983,100.995038 219.851185,101.878091 C219.959764,103.694138 220.059992,105.510186 219.784367,107.298993 C219.606881,108.434022 219.274879,109.532731 219.059808,110.65868 C218.362395,114.349797 218.967933,118.170307 218.905292,121.938606 C218.890675,122.742207 218.84265,123.566238 218.531528,124.294927 C218.199526,125.069017 217.602339,125.656963 217.019769,126.238098 C216.378733,126.866904 215.727256,127.500251 214.954672,127.920212 C213.810412,128.544478 212.492843,128.648901 211.212859,128.692032 C210.434011,128.717003 209.632194,128.719273 208.915988,128.408275 C208.199781,128.097277 207.554569,127.398098 207.502368,126.551366 C207.418845,125.114419 208.909723,124.174614 209.335689,122.812578 C209.673955,121.72749 209.285575,120.528899 208.746854,119.541423 C207.882936,117.967302 206.650033,116.670809 205.174175,115.784475 C204.627102,115.457586 204.044532,115.182909 203.589333,114.722087 C203.134135,114.261265 202.825102,113.546196 203.019292,112.906039 C203.251067,112.131949 204.080029,111.77101 204.825468,111.693828 C205.570907,111.616646 206.358108,111.675667 207.028377,111.314728 C207.625563,110.994649 208.041088,110.377193 208.327153,109.725686 C208.935938,108.335036 209.020614,106.740766 208.563105,105.28318 C208.382045,104.728748 208.119742,104.209779 207.786344,103.74635 C207.473135,103.310498 206.830011,102.942749 206.606588,102.466036 C206.209855,101.607954 207.06805,100.209597 207.600507,99.5285793 Z" id="Shape" fill="#2856FC"></path>
                    <path d="M193.879316,66.613743 C190.285144,63.2609466 185.274624,62.3492615 180.575222,61.3319404 C178.15445,60.809884 175.745281,60.2281202 173.347716,59.5866491 C171.772546,59.1641049 170.193025,58.7140035 168.561288,58.5968852 C166.929551,58.479767 165.24995,58.7208928 163.853183,59.5981313 C162.456416,60.4753698 161.403402,62.0645035 161.3947,63.7799411 C161.3947,64.4688718 161.549171,65.144024 161.501306,65.8260655 C161.425159,66.9237618 160.848612,67.8928578 160.454819,68.9193646 C159.852558,70.5420303 159.76027,72.3260325 160.191566,74.0082666 C160.887773,76.6882072 162.893722,79.0489434 162.71967,81.8161486 C162.430309,86.4480598 162.51951,91.2889467 163.420229,95.8244076 C164.320948,100.359868 165.445758,104.915997 165.41965,109.557094 C165.393543,114.198191 164.062045,119.078117 160.778991,122.16912 C163.003419,124.373578 165.72393,125.942535 168.683124,126.727545 C171.213404,127.395808 174.222327,127.329212 176.023764,125.338202 C176.441489,124.878915 176.787417,124.265766 176.700391,123.634246 C176.610641,123.235802 176.45207,122.858235 176.232626,122.520475 C174.994682,120.180407 175.144802,117.296083 175.693065,114.682739 C176.241329,112.069395 177.179034,109.529537 177.41618,106.861079 C177.590231,104.925183 177.394423,102.957137 177.744703,101.046503 C178.014483,99.5836731 178.597557,98.2058116 178.947837,96.7613534 C179.98127,92.476204 178.895621,87.9774861 177.816499,83.7084118 C178.719393,85.9015081 180.427278,87.6123528 182.193905,89.1004433 C184.874305,91.3555433 188.116022,93.3465532 191.523088,92.9469734 C194.555943,92.5887294 197.138439,90.363483 198.920295,87.7524354 C198.935525,84.7326222 199.927621,81.8781524 199.751393,78.8652285 C199.637712,77.5418036 199.413473,76.2315683 199.081293,74.9498053 C198.748419,73.5168293 198.406842,72.0700747 197.775904,70.7542169 C196.94263,69.0066292 195.26738,67.9066364 193.879316,66.613743 Z" id="Shape" fill="#000000" opacity="0.06"></path>
                    <path d="M194.950695,66.6161695 C191.355229,63.2623618 186.345082,62.3504017 181.641812,61.3327737 C179.220168,60.8105598 176.810858,60.2286206 174.41388,59.586956 C172.838143,59.1642843 171.255877,58.7140471 169.625729,58.5968936 C167.995581,58.47974 166.315376,58.7209385 164.918106,59.5984416 C163.520837,60.4759448 162.465267,62.0655578 162.458738,63.7815128 C162.458738,64.4706514 162.611088,65.1460072 162.563207,65.8282544 C162.489208,66.9262819 161.899395,67.8956701 161.516343,68.9224866 C160.914584,70.545891 160.823026,72.3304268 161.255171,74.0129236 C161.949453,76.6936727 163.956123,79.0551209 163.784185,81.8231608 C163.492543,86.4564692 163.581777,91.2988163 164.48282,95.8356453 C165.383863,100.372474 166.509078,104.929977 166.482961,109.572474 C166.456844,114.214971 165.116162,119.08029 161.829749,122.16763 C164.055262,124.37234 166.776644,125.941708 169.736727,126.727431 C172.267918,127.395895 175.2801,127.329278 177.08001,125.337668 C177.497885,124.878242 177.843937,124.264909 177.75688,123.633198 C177.667098,123.234633 177.508469,122.856953 177.288947,122.519091 C176.050557,120.178317 176.200731,117.293123 176.749192,114.678991 C177.297653,112.064859 178.235695,109.524235 178.475103,106.854971 C178.647041,104.918492 178.451162,102.949853 178.803744,101.038642 C179.071445,99.5753706 179.656906,98.1970935 180.005135,96.7521996 C181.03894,92.4657576 179.955077,87.9656827 178.87339,83.6953206 C179.776609,85.8890784 181.485109,87.6004392 183.254548,89.0889786 C185.935913,91.3447589 189.17662,93.3363693 192.584913,92.936669 C195.61886,92.5783169 198.202285,90.3523993 199.984783,87.7405641 C199.997841,84.71984 200.990294,81.8645091 200.814003,78.8506764 C200.700281,77.5268523 200.475962,76.2162218 200.143662,74.9340722 C199.812845,73.5006639 199.468968,72.0534729 198.837803,70.7372182 C198.02817,69.0097775 196.339259,67.9094529 194.950695,66.6161695 Z" id="Shape" fill="#FACFC8"></path>
                    <path d="M169.473572,123.065349 C167.880186,122.023046 166.504167,120.638847 165.431573,118.999321 C165.044965,118.411462 164.697453,117.786278 164.21528,117.287064 C163.733107,116.78785 163.07935,116.416939 162.412562,116.491587 C161.658895,116.575567 161.055093,117.19142 160.577264,117.825935 C159.295813,119.531194 158.470472,121.616696 157.047844,123.191319 C155.40585,125.013217 153.114442,125.99065 150.827378,126.615834 C148.540315,127.241018 146.179405,127.569939 143.937952,128.36075 C143.23424,128.608024 142.493605,128.943944 142.113514,129.627447 C141.631341,130.497572 141.896319,131.6383 142.404555,132.501427 C143.340666,134.13437 144.952253,135.186451 146.633342,135.811635 C148.314432,136.436819 150.093259,136.686426 151.846023,137.055005 C154.943224,137.705849 158.116444,138.7486 161.198441,138.013775 C162.427765,137.719846 163.587587,137.150648 164.829942,136.903374 C167.653478,136.338842 170.566063,137.47957 173.400458,137.022346 C174.770959,136.800732 176.065441,136.212873 177.309969,135.550364 C177.934084,135.260601 178.501528,134.846642 178.982371,134.330323 C179.436308,133.789119 179.709974,133.021636 179.523186,132.321803 C179.416761,131.918233 179.17133,131.577647 179.008434,131.197405 C178.752144,130.609546 178.700017,129.94937 178.639203,129.303191 C178.40476,126.843544 178.007004,124.405029 177.448974,122.006269 C177.25567,121.168803 176.966801,120.235692 176.239198,119.869447 C176.090852,119.783445 175.917246,119.762542 175.754853,119.811127 C175.49639,119.916102 175.411684,120.252022 175.333494,120.534288 C174.898872,122.124952 173.677202,123.324391 172.163227,123.646863 C170.649253,123.969334 169.093868,123.361398 168.126963,122.069254" id="Shape" fill="#2856FC"></path>
                    <path d="M158.308043,21.1984013 C158.307734,21.7324072 158.278115,22.2659786 158.219325,22.7966217 C156.801687,23.0127076 155.367857,22.5271092 154.360079,21.4896024 C153.89209,20.9839508 153.541653,20.3722026 153.0781,19.8620361 C152.614547,19.3518697 151.969121,18.9274835 151.303734,18.9816605 C150.735937,19.0245506 150.243551,19.3902451 149.855408,19.8146313 C149.350355,20.3671509 148.98031,21.0330051 148.775263,21.7582299 C148.62666,22.2706537 148.553467,22.853056 148.136491,23.1939194 C147.719515,23.5347828 147.207167,23.5122091 146.712563,23.4941501 C146.071573,23.4715764 145.406186,23.4399732 144.840607,23.1329704 C143.775987,22.5483106 143.416678,21.2096881 143.021882,20.0448834 C142.356495,18.0877406 140.859374,14.385648 138.532737,13.9906076 C137.423758,13.8032456 136.07524,14.3991923 135.205801,15.0425437 C133.894988,16.0109569 132.927959,16.6385068 131.233439,16.6114183 C133.439652,10.0585806 139.976785,6.08911135 146.690477,7.22561505 C153.40417,8.36211875 158.326883,14.2715273 158.330223,21.1984013 L158.308043,21.1984013 Z" id="Shape" fill="#000000" opacity="0.06"></path>
                    <path d="M130.90179,17.0320868 C130.506246,17.0409966 130.112373,16.9758237 129.738852,16.8396591 C128.674654,16.4044061 128.156817,15.1215549 128.066854,13.9326267 C127.926423,12.1205994 128.505698,10.3429342 129.087168,8.62712077 C129.210044,8.25371945 129.357057,7.85282845 129.677414,7.64436513 C129.936821,7.51142309 130.220225,7.43725832 130.509024,7.42673859 C132.084477,7.19765803 133.451478,6.19199433 134.614416,5.06491794 C135.777355,3.93784154 136.826194,2.65957197 138.125174,1.72034164 C141.570105,-0.760600909 146.682645,-0.297858162 149.662401,2.76265823 C150.842893,3.97220363 151.856624,5.6124205 153.493515,5.8964804 C154.437031,6.0591276 155.448568,5.72008836 156.346006,6.08661727 C157.004273,6.35464154 157.473836,6.96170504 157.851243,7.58251338 C159.07562,9.58925916 159.650506,11.9671155 159.841404,14.3380993 C160.032301,16.7090832 159.856763,19.0938119 159.679031,21.4647958 C159.689018,21.8197883 159.601457,22.1703464 159.426695,22.4750411 C159.286308,22.6507951 159.110154,22.7916607 158.911053,22.8873861 C157.200076,23.7679254 155.14132,23.4061584 153.800706,21.9893903 C153.335531,21.4785406 152.991038,20.8577323 152.532445,20.3377194 C152.073853,19.8177065 151.435334,19.3916167 150.777066,19.446596 C150.217539,19.4901213 149.726033,19.8612318 149.344239,20.2919033 C148.84459,20.8526058 148.478505,21.5283215 148.275652,22.264287 C148.130833,22.7842999 148.056229,23.3753277 147.643715,23.7189486 C147.231201,24.0625695 146.724336,24.044243 146.23283,24.0259166 C145.600893,24.0007177 144.942626,23.9709372 144.383099,23.6570968 C143.327678,23.066069 142.972214,21.7076212 142.583836,20.5255655 C141.925569,18.539437 140.446662,14.7802248 138.142728,14.3816246 C137.045616,14.189197 135.711528,14.7962605 134.851393,15.4491401 C133.534859,16.4250233 132.586954,17.0618673 130.90179,17.0320868 Z" id="Shape" fill="#333333"></path>
                    <path d="M58.9516494,101.839691 C58.797999,102.903214 57.8671893,103.733507 57.2102782,104.559137 C55.4243707,106.816789 53.6139682,109.081439 51.616513,111.147844 C49.4787684,113.356518 47.1317029,115.324968 44.7868642,117.293417 L41.7450317,119.842605 C41.3697791,120.201951 40.9299686,120.479446 40.4512508,120.658905 C39.8904793,120.805421 39.2978822,120.731571 38.7855914,120.451332 C38.8301278,120.35804 38.8768909,120.271746 38.9281077,120.185451 L42.5756346,113.783327 C43.2926697,112.528557 43.7625282,111.385737 44.5797702,110.207933 C45.8112002,108.444725 47.0537643,106.672187 48.5702269,105.177192 C50.4875166,103.285709 52.945923,101.911992 55.226184,100.545273 C55.5557529,99.5097379 56.9363797,99.2228667 57.8694162,99.7126467 C58.2152024,99.9003625 58.526558,100.150664 58.7890917,100.451981 C58.9562319,100.892236 59.0122183,101.370176 58.9516494,101.839691 Z" id="Shape" fill="#000000" opacity="0.06"></path>
                    <path d="M43.4429594,114.876825 L39.8644077,121.205033 C39.7180322,121.460834 39.5672874,121.751204 39.6306439,122.041573 C39.7110432,122.285266 39.8644053,122.494761 40.0675855,122.638443 C41.4395821,123.816052 42.9601389,125.058188 43.3905264,126.867235 C43.6985702,128.157765 43.3905264,129.540476 43.6657996,130.835615 C44.1704672,133.172397 46.3966846,134.591981 48.5027432,135.490743 C53.2217125,137.504892 58.4606423,138.27921 63.4745472,137.334358 C68.4884521,136.389505 73.2467462,133.697827 76.4932223,129.558912 C77.4894491,128.286818 78.3414852,126.894889 79.2874638,125.581313 C81.9091134,121.951697 85.2364237,118.971954 88.5375176,116.022171 C92.7867747,112.224324 95.29045,106.559818 99.024116,102.19506 C99.7035602,101.400001 100.452915,100.581897 101.427295,100.319182 C101.973472,100.173997 102.73812,100.388317 102.759967,100.982883 C102.810215,102.135142 103.688468,103.07769 104.289262,104.040979 C106.55262,107.691336 108.920843,111.454615 112.418561,113.782179 C114.332365,115.058882 116.50178,115.840114 118.664641,116.547601 C124.148258,118.349734 129.738926,119.773927 135.32304,121.184292 C135.604923,120.589827 135.943089,120.026964 136.332375,119.504298 C136.911322,118.75533 137.673786,118.183809 138.254918,117.430231 C139.318871,116.07287 139.692456,114.27765 140.03327,112.55387 C136.697221,110.399145 133.273784,108.175285 129.983613,105.935293 C128.327605,104.810688 126.660672,103.660733 125.319262,102.139751 C124.445379,101.13959 123.711317,99.9942445 122.835249,98.9871699 C121.939091,98.0099391 120.973561,97.1062501 119.947065,96.2839697 L112.082116,89.6400429 C109.823128,87.7342061 107.520446,85.7223614 105.309521,83.7496936 C104.066422,82.6389157 102.687871,81.4705248 101.062449,81.4175209 C99.6707896,81.3714305 98.3905507,82.1572713 97.1933307,82.9131534 C90.1614839,87.3547287 83.024771,91.5965791 75.7831922,95.6387045 C74.3172531,96.4545041 72.8447599,97.2656946 71.4465467,98.2036336 C68.7260655,100.029215 66.3106625,102.316998 64.2981821,104.974309 C63.9289665,105.460562 63.4614389,106.013647 62.8759372,105.939902 C62.7149853,105.914937 62.5600192,105.857841 62.4193332,105.771672 C61.5170488,105.262374 60.9643177,104.278344 60.453096,103.345014 C59.9418743,102.411684 59.3716655,101.429959 58.4562729,100.946011 C57.5408802,100.462062 56.188546,100.745517 55.8630245,101.771028 C53.6149599,103.160653 51.2117811,104.506492 49.3285628,106.375456 C47.8407766,107.852653 46.6217096,109.601782 45.413566,111.346303 C44.6074088,112.510084 44.1442507,113.639298 43.4429594,114.876825 Z" id="Shape" fill="#333333"></path>
                    <path d="M36.6603535,75.5711828 C36.6603535,75.5711828 40.0640783,77.06882 42.5047577,78.7590397" id="Shape" fill="#000000" opacity="0.06"></path>
                    <path d="M217.204939,79.1916024 C217.270975,81.2867572 217.323804,83.3864031 217.299591,85.4793122 C217.286384,86.5886439 217.240158,87.7451333 216.718473,88.7174827 C216.346469,89.4158677 215.758747,89.961551 215.177629,90.4960064 L211.552243,93.8487031 C210.427427,94.8884208 209.214563,95.9730507 207.715542,96.2312959 C206.000803,96.5277165 204.325685,95.6766301 202.676982,95.1084906 C201.016703,94.5378332 199.278085,94.239944 197.526161,94.2259656 C196.522412,94.2259656 195.509857,94.3068076 194.519315,94.1451237 C193.803067,94.0060267 193.100329,93.8023748 192.419365,93.5365632 L189.146172,92.3778281 C189.238622,91.5357241 190.026654,90.9990232 190.687016,90.4668134 C193.0313,88.5266058 194.059263,85.4074527 194.798868,82.4230361 C195.400044,80.0930925 195.82829,77.7202515 196.079969,75.3246609 C196.192231,74.1389785 196.242859,72.9330856 195.998525,71.7676137 C195.768061,70.8274462 195.443513,69.9139252 195.029994,69.0414424 L193.878764,66.3938674 C193.218402,64.8982907 191.897679,64.23359 190.552742,63.351065 C192.582254,64.1370287 195.056409,64.4446774 196.599454,66.0031312 C196.897183,66.3484387 197.249933,66.6399756 197.642825,66.8654456 C198.063256,67.0697962 198.540917,67.0900067 199.000969,67.1663575 C201.292424,67.5166727 203.240491,68.9853021 205.133528,70.3438965 C207.450663,72.0086425 209.832368,73.5723361 212.278641,75.0349771 C213.379244,75.6951867 214.515066,76.3441681 215.441773,77.244658 C216.368481,78.1451479 217.094879,79.344304 217.154311,80.6490037" id="Shape" fill="#333333"></path>
                    <path d="M20.6440623,75.9846585 C17.7971471,76.5794242 16.3161431,80.1181651 16.4833532,83.1792564 C16.6440368,85.9133925 17.7059755,88.5014572 19.4844493,90.4932666 C20.6722926,91.8136924 22.1532966,92.8332907 23.2260473,94.2593504 C24.8112861,96.362846 25.3628624,99.1437774 26.7808911,101.378167 C27.8102106,102.99942 29.2542981,104.271622 30.6896993,105.491006 C33.9991569,108.28342 37.4164686,110.926568 40.9416345,113.42045 C42.3748641,114.433159 43.9427305,115.45735 45.6669492,115.418311 C47.2912761,115.381569 48.787481,114.373453 49.8472024,113.069102 C50.9069237,111.764751 51.5844504,110.18024 52.272835,108.618693 C54.7527566,102.900676 57.2500507,97.1206556 58.4357225,90.9571379 C58.8070593,89.021279 59.0567887,87.0257139 59.8863246,85.2551952 C60.5377927,83.8773597 61.5019653,82.6970139 62.3619031,81.4523692 C64.3935211,78.4989188 65.8195448,75.129386 66.548671,71.55951 C67.0220711,69.230968 67.180595,66.7370857 66.4031765,64.5095849 C65.6257579,62.2820841 63.7386722,60.350818 61.4911075,60.1762922 C59.7125998,60.0385086 57.9666655,61.0029935 56.7723075,62.4060893 C55.5779494,63.8091852 54.874364,65.6026678 54.3944492,67.4191143 C53.7064521,70.0323162 53.4421241,72.7499007 53.6126876,75.4564882 C53.7516674,77.6403575 54.1729501,79.8448944 53.8168142,82.0035034 C53.5649132,83.5260116 52.9373324,84.9474786 52.3162662,86.3482781 C50.7114833,89.9628 49.0806417,93.6232497 46.655009,96.6820446 C45.8645612,97.6786789 44.7766096,98.6867953 43.5670506,98.4525632 C41.8949493,98.1310683 41.4519511,95.8920855 40.6267582,94.3190566 C39.6148112,92.3900869 37.6951521,91.2304087 36.190261,89.6987148 C34.0491027,87.5171419 32.7657107,84.5915378 31.2434471,81.8909801 C29.7211835,79.1904225 27.7515785,76.5243107 24.9459229,75.4886377 C22.1402672,74.4529647 18.4008408,75.7825759 17.6798828,78.8321853" id="Shape" fill="#000000" opacity="0.06"></path>
                    <path d="M22.7752341,78.0649957 C19.9257832,78.6597369 16.2988144,79.0478113 16.4769051,82.1133694 C16.6357897,84.8478549 17.6981218,87.4364411 19.4783846,89.4270792 C20.6663798,90.749747 22.147573,91.7693034 23.2204608,93.1953045 C24.8059022,95.2987137 25.3575489,98.0772345 26.7757589,100.313829 C27.8052099,101.937312 29.2494819,103.209461 30.6850665,104.426499 C33.994947,107.220329 37.4126954,109.863368 40.9383117,112.355617 C42.3717245,113.370581 43.9397912,114.39473 45.6642302,114.355693 C47.2887647,114.318952 48.7851608,113.308581 49.8450176,112.006579 C50.9048743,110.704578 51.5824876,109.117836 52.2709601,107.554057 C54.7511986,101.836275 57.2488119,96.0564921 58.4346352,89.8932277 C58.8060194,87.9597446 59.0557807,85.9619652 59.8854227,84.1938156 C60.5369739,82.8160366 61.5012698,81.6357394 62.3613175,80.3888494 C64.3935326,77.4365768 65.8197865,74.0678513 66.5486203,70.4986931 C67.0220809,68.1679504 67.1806251,65.6764668 66.4031072,63.4467613 C65.6255894,61.2170557 63.7382625,59.2904615 61.4904106,59.1136465 C59.7116757,58.9758686 57.9655183,59.9426102 56.7710076,61.3433521 C55.5764969,62.744094 54.8728215,64.5397992 54.3928454,66.3584674 C53.7046366,68.9715372 53.4402726,71.6890324 53.6109839,74.3955111 C53.7499815,76.581587 54.171318,78.7860333 53.8151367,80.9422573 C53.5632035,82.4669993 52.9355424,83.8884079 52.3143969,85.2891498 C50.7094089,88.9035232 49.0783589,92.5615262 46.6524163,95.6224918 C45.8618675,96.6190852 44.7737768,97.6248638 43.5640633,97.3929377 C41.8917484,97.0691596 41.4486935,94.8302689 40.6233952,93.2596009 C39.6113189,91.3307104 37.6914145,90.1710798 36.1863311,88.6394489 C34.0448992,86.4602619 32.7613432,83.5324817 31.2388851,80.832035 C29.7164269,78.1315883 27.7465703,75.4678824 24.9405561,74.4299556 C22.134542,73.3920288 25.6485752,80.0398121 24.9253533,83.0892961" id="Shape" fill="#000000" opacity="0.06"></path>
                    <path d="M20.6440623,75.4490324 C17.7971471,76.0437939 16.3161431,79.5825101 16.4833532,82.6435799 C16.6435381,85.3785009 17.7055114,87.9674445 19.4844493,89.9598354 C20.6722926,91.2802518 22.1532966,92.299843 23.2260473,93.7258928 C24.8112861,95.8293736 25.3628624,98.6102855 26.7808911,100.84466 C27.8102106,102.468198 29.2542981,103.740391 30.6896993,104.959766 C33.9991569,107.75216 37.4164686,110.394524 40.9416345,112.886858 C42.3748641,113.901856 43.9427305,114.92604 45.6669492,114.887002 C47.2912761,114.85026 48.787481,113.842151 49.8472024,112.537809 C50.9069237,111.233467 51.5844504,109.648967 52.272835,108.087431 C54.7527566,102.369454 57.2500507,96.5894742 58.4357225,90.4237034 C58.8070593,88.4901544 59.0567887,86.4923069 59.8863246,84.724097 C60.5377927,83.3462711 61.5019653,82.1659336 62.3619031,80.9190012 C64.3938586,77.9666279 65.8199303,74.5977876 66.548671,71.0285077 C67.0220711,68.6976856 67.180595,66.2061171 66.4031765,63.9763356 C65.6257579,61.746554 63.7386722,59.8198942 61.4911075,59.6453696 C59.7125998,59.5052906 57.9666655,60.4720651 56.7723075,61.8751511 C55.5779494,63.2782371 54.874364,65.0717072 54.3944492,66.8881409 C53.7064521,69.5013246 53.4421241,72.2188901 53.6126876,74.9254586 C53.7516674,77.1093126 54.1729501,79.313834 53.8168142,81.4701315 C53.5649132,82.9949255 52.9373324,84.4163826 52.3162662,85.8171722 C50.7114833,89.4316688 49.0806417,93.0920929 46.655009,96.1508663 C45.8645612,97.1474937 44.7766096,98.1533066 43.5670506,97.9213726 C41.8949493,97.5975835 41.4519511,95.3609128 40.6267582,93.7878949 C39.6148112,91.8566423 37.6951521,90.6969722 36.190261,89.1675855 C34.0491027,86.9860278 32.7657107,84.0604442 31.2434471,81.3599055 C29.7211835,78.6593667 27.7515785,75.99557 24.9459229,74.9599042 C22.1402672,73.9242385 18.4008408,75.2538404 17.6798828,78.3034284" id="Shape" fill="#FACFC8"></path>
                    <g id="Group" opacity="0.06" transform="translate(1.593928, 30.941187)" fill="#000000">
                        <path d="M8.0946723,25.2328666 C7.17710196,23.6805614 6.40595737,22.0422433 5.79168725,20.3401108 L5.71661391,20.1139085 C5.25065927,19.6015089 4.85879629,19.0233388 4.55297716,18.3970331 C4.07959578,17.3300704 3.82268606,16.1757247 3.7978277,15.0039986 C3.7978277,14.9610201 3.7978277,14.9180417 3.7978277,14.8750633 C3.63983315,15.2370123 3.52349642,15.6165697 3.45116552,16.0060748 C3.23036159,17.2818557 3.59468808,18.584781 4.03187988,19.8017494 C4.64658054,21.5036944 5.41770582,23.1419715 6.33486493,24.6945051 C7.70605737,27.042485 9.45703259,29.304508 9.72862143,31.9985774 C10.1371087,36.0295024 7.16950381,39.5786165 6.43643474,43.562039 C5.87559274,46.6044599 6.58658142,50.0042805 4.99900112,52.6372753 C4.36443359,53.6300573 3.51231927,54.4573047 2.51054075,55.0531159 C1.88222282,55.4633107 1.19432088,55.768715 0.472520424,55.9579251 C0.340890546,56.1179471 0.199279481,56.2690651 0.048576866,56.4103297 C1.45068186,56.9079747 3.01176569,56.3718753 4.27476421,55.5756432 C5.27615111,54.9783176 6.12810749,54.1504491 6.76322457,53.1575406 C8.35080487,50.5245458 7.64644031,47.1247252 8.19845015,44.0823043 C8.93372726,40.1011438 11.9013322,36.5497677 11.4928449,32.5188427 C11.219048,29.8089391 9.47028082,27.5491782 8.0946723,25.2328666 Z" id="Shape"></path>
                        <path d="M33.5754465,5.32706417 C33.0079804,3.98116049 31.8090151,3.02658678 30.5769291,2.27785716 C29.0150691,1.31774112 27.3154243,0.615460142 25.5403913,0.196796001 C26.6795368,0.604158036 27.7758205,1.12781033 28.8127056,1.7598539 C30.0447916,2.51084553 31.2415489,3.46315722 31.8134311,4.81132293 C32.3853133,6.15948864 32.1004762,7.97815513 30.8728064,8.72914677 C30.0072549,9.26072218 28.9275237,9.16571721 27.9184497,9.14309698 C27.04641,9.12267197 26.1740855,9.168035 25.3085472,9.27881836 C24.9960029,9.30194043 24.6904464,9.38480051 24.4076671,9.52311685 C24.039222,9.7676619 23.748999,10.1176797 23.5730282,10.5297171 C23.2179874,11.2253007 22.9791602,11.9768846 22.8664556,12.7532857 C22.7428054,13.6219025 22.7538456,14.5742142 22.2239162,15.2641312 C21.5040953,16.2028708 20.3779953,16.0603633 19.353465,16.2458492 C18.4637372,16.4207727 17.6109626,16.7546027 16.8340921,17.2320912 C15.1427339,18.2794079 13.9349364,20.1930794 13.857655,22.2356861 C13.8311586,22.9640575 13.9283123,23.7082631 13.7362129,24.4094902 C13.6122908,24.8185806 13.4178585,25.2016304 13.1621226,25.5405017 C13.5533713,25.9689742 13.8956226,26.4417785 14.1822368,26.9497421 C14.7232065,26.3457819 15.2862565,25.7124155 15.5070604,24.9252315 C15.7013679,24.2240043 15.6020061,23.4775368 15.6307106,22.7491653 C15.707992,20.7133446 16.9157896,18.7951491 18.6071477,17.7455705 C19.3834158,17.2672873 20.2364658,16.9341154 21.1265206,16.7615905 C22.1466348,16.5738425 23.2727349,16.71635 23.9969718,15.7776105 C24.5269012,15.0990035 24.513653,14.1353818 24.6395112,13.2667649 C24.7514415,12.4904797 24.9895246,11.7388885 25.3438758,11.0431963 C25.5209954,10.6348913 25.8112032,10.2888244 26.1785147,10.0479062 C26.4606007,9.90766618 26.766524,9.82470663 27.0793947,9.8036077 C27.944976,9.69319873 28.81722,9.6470839 29.6892973,9.66562429 C30.6983713,9.69050655 31.7781025,9.78324949 32.6436539,9.25167409 C33.8624917,8.49389638 34.1429127,6.68427798 33.5754465,5.32706417 Z" id="Shape"></path>
                    </g>
                    <path d="M21.7836883,59.1005892 C21.7836883,59.1005892 24.1660465,60.9051275 28.6907115,59.8110374 C28.6907115,59.8074851 25.8887678,60.779023 21.7836883,59.1005892 Z" id="Shape" fill="#000000" opacity="0.06"></path>
                    <path d="M159.708285,19.2739941 C159.713353,19.6148432 159.621923,19.9501238 159.444644,20.2407809 C159.303999,20.4094874 159.1276,20.5444788 158.928348,20.6358832 C157.216438,21.485223 155.155517,21.1374619 153.813724,19.7728384 C153.347959,19.2784087 153.003029,18.6692006 152.543856,18.1813927 C152.084682,17.6935847 151.445354,17.2675805 150.786253,17.3205551 C150.226017,17.3647007 149.736085,17.7222793 149.351609,18.1350399 C148.853764,18.6770861 148.48756,19.3275508 148.281668,20.0355042 C148.138863,20.5387631 148.061968,21.106033 147.651128,21.4393316 C147.240289,21.7726302 146.730584,21.7505575 146.238455,21.7328993 C145.603521,21.7108265 144.94442,21.6821319 144.386381,21.3797351 C143.329622,20.810258 142.973708,19.4991363 142.582641,18.3623893 C141.92354,16.446474 140.442759,12.8265418 138.138103,12.4402686 C137.039601,12.2570647 135.701625,12.8419928 134.842597,13.4688591 C133.544168,14.4157803 132.586274,15.029403 130.905566,15.013952 C130.509585,15.0215951 130.115378,14.9588249 129.741155,14.8285409 C128.774473,14.4466822 128.258177,13.3916044 128.10219,12.3453557 C128.042478,12.8248733 128.029968,13.3091374 128.064841,13.7911213 C128.157115,14.9344901 128.675608,16.1705645 129.741155,16.5921542 C130.115378,16.7224381 130.509585,16.7852084 130.905566,16.7775653 C132.586274,16.8040526 133.541971,16.19043 134.842597,15.2435087 C135.706019,14.6166424 137.039601,14.0295071 138.138103,14.2149182 C140.433971,14.5901551 141.927934,18.2100872 142.573853,20.1237953 C142.96492,21.2627495 143.320834,22.5738713 144.377593,23.1433484 C144.935632,23.4435379 145.594733,23.4744398 146.229667,23.4965125 C146.721796,23.5141707 147.262259,23.516378 147.64234,23.2029449 C148.022422,22.8895117 148.130075,22.3001691 148.27288,21.7991175 C148.478253,21.0909443 148.844522,20.4403663 149.342821,19.8986532 C149.727297,19.4858926 150.221623,19.1283139 150.777465,19.0841684 C151.454142,19.0311938 152.095667,19.4439544 152.535068,19.9450059 C152.974468,20.4460575 153.339171,21.0486438 153.804936,21.5364517 C155.146729,22.9010751 157.20765,23.2488362 158.91956,22.3994965 C159.11836,22.3073354 159.294605,22.1724618 159.435856,22.0043942 C159.613425,21.7130517 159.704862,21.3769813 159.699496,21.0354001 C159.871416,19.1762222 159.944754,17.309171 159.919197,15.4421635 C159.901621,16.7201762 159.80715,17.9981888 159.708285,19.2739941 Z" id="Shape" fill="#000000" opacity="0.06"></path>
                    <path d="M6.82380851,116.639027 C6.82380851,116.639027 7.13707629,116.23331 6.54797524,116.072857 L6.54797524,115.405831 L6.90261801,115.405831 C6.9010374,113.744996 5.90143308,112.311621 4.50483884,111.967553 L4.50483884,111.158412 L4.59744001,111.158412 L4.59744001,110.106298 L2.31787509,110.106298 L2.31787509,111.158412 L2.38289293,111.158412 L2.38289293,111.976722 C1.00002696,112.337389 0.0175002747,113.766235 0.0186077997,115.415 L0.33187558,115.415 L0.33187558,116.05452 C0.33187558,116.05452 -0.414844475,116.464821 0.33187558,117.200612 C1.07859563,117.936404 0.962351615,118.468191 0.962351615,118.468191 C0.962351615,118.468191 0.649083835,119.843502 0.0205780373,120.022292 L0.0205780373,132.77372 C0.0200552215,133.525513 0.27639082,134.246722 0.733138654,134.778535 C1.18988649,135.310348 1.80959139,135.609153 2.45579172,135.609153 L4.38071387,135.609153 C5.72673338,135.609153 6.8178978,134.339686 6.8178978,132.77372 L6.8178978,120.022292 C6.8178978,120.022292 5.71653497,119.061867 5.91355873,118.468191 C6.17788028,117.833246 6.48212333,117.221864 6.82380851,116.639027 Z" id="Shape" fill="#2856FC" opacity="0.600000024"></path>
                </g>
            </g>
        </g>
    </g>
</svg>